<?xml version="1.0" encoding="UTF-8"?><svg id="Layer_1" xmlns="http://www.w3.org/2000/svg" viewBox="0 0 20 20"><defs><style>.cls-1{fill:#333;stroke-width:0px;}</style></defs><path class="cls-1" d="m15.37,2.03H4.71c-1.27,0-2.29,1-2.29,2.25v8.75c0,1.25,1.02,2.25,2.29,2.25h10.58c1.27,0,2.29-1,2.29-2.25V4.28c.08-1.25-.93-2.25-2.2-2.25Zm.2,2.18v8.82c0,.14-.12.25-.29.25h-.74c-.12-.25-.35-.45-.69-.58-.34-.17-.85-.25-1.27-.33-.34-.08-.68-.17-.93-.25-.17-.08-.34-.17-.42-.33-.08-.08-.08-.17-.17-.25l-.08-.17.17-.17c.17-.17.34-.33.51-.5.08-.17.17-.33.25-.58,0-.08.08-.17.08-.25s.08-.17.08-.25v-.08l.17-.08s.08,0,.08-.08c.08-.08.08-.25.17-.33,0-.25,0-.42-.08-.5l.08-.17.08-.17v-.67c0-.17,0-.25-.08-.42,0-.25-.08-.42-.08-.42,0-.08-.08-.17-.08-.25-.08-.08-.08-.17-.17-.25-.08-.08-.08-.17-.17-.25-.08-.08-.17-.17-.25-.25-.34-.25-.85-.5-1.61-.5s-1.27.25-1.61.5c-.08.08-.17.17-.25.25-.08.08-.17.17-.17.25-.08.08-.08.17-.17.25,0,.08-.08.17-.08.25,0,0-.08.17-.08.42,0,.08,0,.25-.08.42v.67l.08.17-.08.08c-.08.08-.08.25-.08.5,0,.17.08.25.17.33l.08.08.17.08v.08c0,.08.08.17.08.25s.08.17.08.25c.08.25.17.42.25.58.17.17.25.42.51.5l.17.17-.08.17c-.08.08-.08.17-.17.25-.08.17-.25.25-.42.33-.25.08-.59.17-.93.25-.42.08-.85.17-1.27.33-.39.15-.62.38-.73.67h-.8c-.17,0-.29-.11-.29-.25V4.28c0-.14.12-.25.29-.25h10.67c.12,0,.17.05.19.07.02.02.02.03.02.05v.07Z"/><path class="cls-1" d="m16.73,16.3H3.35c-.51,0-.85.33-.85.83s.34.83.85.83h13.29c.51,0,.85-.33.85-.83.08-.42-.34-.83-.76-.83Z"/></svg>