<?xml version="1.0" encoding="utf-8"?>
<!-- Generator: Adobe Illustrator 21.1.0, SVG Export Plug-In . SVG Version: 6.00 Build 0)  -->
<svg version="1.1" id="Layer_1" xmlns="http://www.w3.org/2000/svg" xmlns:xlink="http://www.w3.org/1999/xlink" x="0px" y="0px"
	 viewBox="0 0 42 42" style="enable-background:new 0 0 42 42;" xml:space="preserve">
<style type="text/css">
	.st0{fill:#004A70;}
	.st1{fill:#FFFFFF;}
</style>
<title>Asset 3</title>
<g id="Layer_2">
	<g id="Layer_1-2">
		<path class="st0" d="M21,1c11,0,20,9,20,20s-9,20-20,20S1,32,1,21S10,1,21,1 M21,0C9.4,0,0,9.4,0,21s9.4,21,21,21s21-9.4,21-21
			S32.6,0,21,0z"/>
	</g>
</g>
<path class="st1" d="M30.9,27.4c-0.1-0.3-0.1-0.7-0.3-1.1c-0.2-0.8-0.8-1.4-1.7-1.8c-0.8-0.4-1.7-0.5-2.6-0.7
	c-0.7-0.1-1.3-0.3-1.8-0.5c-0.2-0.1-0.5-0.3-0.6-0.5c-0.1-0.1-0.2-0.3-0.3-0.4c0.4-0.3,0.7-0.7,1-1.2c0.4-0.6,0.7-1.4,0.9-2.3
	c0.2-0.1,0.4-0.2,0.5-0.4c0.2-0.2,0.3-0.6,0.4-0.9c0.1-0.5,0-1-0.2-1.3c0-0.1,0.2-1.1,0.1-1.7c0-1-0.2-1.7-0.3-1.8
	c-0.2-0.8-0.8-1.6-1.7-2.2c-0.7-0.5-1.8-1.1-3.5-1.1c-1.6,0-2.8,0.6-3.5,1.1c-0.9,0.6-1.5,1.4-1.7,2.2c0,0-0.2,0.8-0.3,1.8
	c0,0.6,0.1,1.6,0.1,1.7c-0.2,0.3-0.2,0.8-0.2,1.3c0.1,0.4,0.2,0.7,0.4,0.9c0.2,0.2,0.3,0.4,0.5,0.4c0.2,0.9,0.5,1.6,0.9,2.3
	c0.3,0.5,0.6,0.9,1,1.2c-0.1,0.1-0.2,0.3-0.3,0.4c-0.2,0.2-0.4,0.4-0.6,0.5c-0.5,0.2-1.1,0.3-1.8,0.5c-0.8,0.2-1.8,0.3-2.6,0.7
	c-0.9,0.4-1.5,1-1.7,1.8c-0.3,1-0.4,1.6-0.4,2.4c0,0.1,0,2.3,0.1,2.6c0.3,0.8,1.1,1.3,1.9,1.3h16c1.2,0,2.1-1,2.1-2.1
	C31.1,30.4,31,27.9,30.9,27.4z"/>
</svg>
