<svg width="860" height="116" viewBox="0 0 860 116" fill="none" xmlns="http://www.w3.org/2000/svg">
<path d="M405.6 19.5C405.6 26.5 401.6 34 390.8 34C383 34 376 29.7 376 19.5C376 11.1 381.3 4.60002 391.9 5.10002C403.2 5.70002 405.6 14.4 405.6 19.5ZM385.6 14.2C384.6 15.7 384.2 17.6 384.2 19.5C384.2 23.8 386.3 27.6 390.9 27.6C395.3 27.6 397.4 24 397.4 19.8C397.4 16.8 396.7 14.5 395.1 13.1C393.4 11.6 391.5 11.5 390.3 11.6C388.1 11.7 386.7 12.5 385.6 14.2Z" fill="white"/>
<path d="M477.7 8.19998C478.5 7.39998 479 6.69998 480.4 5.99998C481.7 5.49998 483.5 5.09998 485.4 5.09998C487 5.09998 488.9 5.39998 490.3 6.19998C493.2 7.69998 493.9 10.2 493.9 14.5V33.3H485.8V17.8C485.8 15.3 485.7 14.4 485.4 13.7C484.8 12.2 483.3 11.6 481.8 11.6C477.5 11.6 477.5 15 477.5 18.5V33.4H469.4V5.79998H477.6V8.19998H477.7Z" fill="white"/>
<path d="M465.7 26.2C465 27.8 462.6 34 452 34C443.8 34 438.1 29 438.1 20C438.1 13.3 441.4 5.2 452.2 5.2C453.8 5.2 458.6 5 462.1 8.8C465.7 12.7 465.9 18 466 21.2H446.3C446.2 24.6 448.2 28.1 452.6 28.1C457 28.1 458.6 25.2 459.6 23.2L465.7 26.2ZM457.6 16C457.4 14.8 457.2 13.3 456.1 12.1C455.1 11.1 453.6 10.6 452.1 10.6C450.1 10.6 448.8 11.6 448 12.4C446.9 13.6 446.6 14.9 446.4 16H457.6Z" fill="white"/>
<path d="M578.7 11.5H584.1V5.8H578.8V0H570.7V5.8H569.4L565.7 11.5H570.7V24.6C570.7 27.2 570.8 29.2 571.9 30.8C573.6 33.3 576.7 33.5 579.5 33.5C581 33.5 582 33.3 583.8 33.1V26.8L580.9 26.9C578.7 26.9 578.7 25.5 578.8 23.8V11.5H578.7Z" fill="white"/>
<path d="M498.1 0H506.2V5.8H514.6L510.9 11.5H506.2V23.7C506.1 25.4 506.1 26.8 508.3 26.8L511.2 26.7V33C509.5 33.3 508.4 33.4 506.9 33.4C504.1 33.4 501 33.2 499.3 30.7C498.2 29.1 498.1 27.1 498.1 24.5V0Z" fill="white"/>
<path d="M591.6 11.5H590.6V6.59999H588.8V5.79999H593.4V6.59999H591.6V11.5ZM599.4 11.5H598.4V7.99999L598.5 6.79999L598.2 7.79999L597 11.5H596.1L594.9 7.79999L594.6 6.89999L594.7 8.09999V11.6H593.7V5.79999H595.1L596.5 10.3L597.9 5.79999H599.3V11.5H599.4Z" fill="white"/>
<path d="M540 26.2L538.5 28.6C537.1 30.7 534.3 34 526.5 34C518.3 34 512.8 29 512.8 20C512.8 13.3 516.1 5.2 526.9 5.2C528.5 5.2 533.3 5 536.8 8.8C540.4 12.7 540.6 18 540.7 21.2H521C520.9 24.6 522.6 28.1 527 28.1C531.4 28.1 532.7 25.2 533.7 23.2L540 26.2ZM532.4 16C532.2 14.8 532 13.3 530.9 12.1C529.9 11.1 528.4 10.6 526.9 10.6C524.9 10.6 523.6 11.6 522.8 12.4C521.7 13.6 521.4 14.9 521.2 16H532.4Z" fill="white"/>
<path d="M567.6 33.3L557.5 18.8L566 5.79999H556.7L552.7 11.9L548.5 5.79999H539.2L548.3 18.8L538.9 33.3H548.2L553.1 25.7L558.4 33.3H567.6Z" fill="white"/>
<path d="M416.8 8.19998C417.6 6.99998 420.1 5.09998 424 5.09998C430.8 5.09998 435.5 10.2 435.5 19.4C435.5 25 433.4 34 423.6 34C420.1 34 417.3 32 416.7 30.9V42.4H408.6V5.79998H416.8V8.19998ZM422.3 11.5C420.8 11.5 419.3 12.1 418.1 13.6C416.9 15 416.4 17.2 416.4 19.6C416.4 22.8 417.4 24.8 418.4 25.9C419.3 27 420.7 27.6 422 27.6C426 27.6 427.7 23.4 427.7 19.4C427.7 16 426.7 12.4 423.4 11.6C423 11.5 422.7 11.5 422.3 11.5Z" fill="white"/>
<path d="M10 73.0911H19.5415C21.5261 73.0911 23.2945 73.371 24.8466 73.9307C26.4241 74.4651 27.7472 75.292 28.8158 76.4115C29.9099 77.5311 30.7496 78.9305 31.3348 80.6098C31.92 82.2891 32.2126 84.261 32.2126 86.5255C32.2126 88.8155 31.8945 90.8256 31.2584 92.5557C30.6478 94.2859 29.7573 95.7235 28.5868 96.8685C27.4164 98.0135 25.9915 98.8786 24.3122 99.4638C22.6329 100.049 20.7501 100.342 18.6637 100.342H10V73.0911ZM18.8163 97.2883C22.2004 97.2883 24.6685 96.3469 26.2205 94.464C27.7726 92.5557 28.5487 89.935 28.5487 86.6019C28.5487 84.948 28.3706 83.4722 28.0143 82.1746C27.6836 80.877 27.1492 79.7829 26.4114 78.8923C25.6989 77.9763 24.7702 77.2893 23.6252 76.8314C22.4803 76.3479 21.119 76.1062 19.5415 76.1062H13.5113V97.2883H18.8163ZM36.8638 80.6098H40.1842V100.342H36.8638V80.6098ZM36.7493 73.0911H40.2987V76.9459H36.7493V73.0911ZM48.7185 102.174C48.9984 103.369 49.5327 104.222 50.3215 104.731C51.1357 105.24 52.3952 105.494 54.0999 105.494C56.1863 105.494 57.6239 104.909 58.4127 103.738C59.2269 102.593 59.634 100.914 59.634 98.7005V96.6013C58.8707 97.67 57.9419 98.4969 56.8479 99.0821C55.7792 99.6673 54.5197 99.96 53.0694 99.96C51.6446 99.96 50.3978 99.7055 49.3291 99.1966C48.2859 98.6623 47.4209 97.9499 46.7339 97.0593C46.0469 96.1434 45.5253 95.0874 45.1691 93.8916C44.8383 92.6957 44.6729 91.4108 44.6729 90.0368C44.6729 88.5356 44.8764 87.1743 45.2836 85.953C45.6907 84.7063 46.2759 83.6503 47.0392 82.7853C47.8025 81.8947 48.7185 81.2077 49.7871 80.7243C50.8812 80.2409 52.1025 79.9991 53.4511 79.9991C54.5452 79.9991 55.6265 80.2281 56.6952 80.6861C57.7893 81.1187 58.7816 81.9329 59.6721 83.1287V80.6098H62.9544V97.1357C62.9544 98.8404 62.8272 100.367 62.5728 101.716C62.3438 103.09 61.8985 104.247 61.2369 105.189C60.6008 106.156 59.7103 106.893 58.5653 107.402C57.4203 107.911 55.9446 108.166 54.1381 108.166C51.5428 108.166 49.5073 107.695 48.0315 106.754C46.5558 105.838 45.6907 104.311 45.4362 102.174H48.7185ZM59.7103 89.7315C59.7103 88.4338 59.5576 87.3525 59.2523 86.4874C58.947 85.5968 58.5272 84.8717 57.9928 84.3119C57.4585 83.7521 56.8351 83.3577 56.1227 83.1287C55.4357 82.8743 54.7106 82.7471 53.9472 82.7471C53.133 82.7471 52.3697 82.887 51.6573 83.1669C50.9703 83.4214 50.3596 83.8412 49.8253 84.4264C49.3164 85.0116 48.9093 85.7622 48.604 86.6782C48.3241 87.5942 48.1842 88.701 48.1842 89.9986C48.1842 91.3217 48.3368 92.4413 48.6422 93.3572C48.9729 94.2732 49.3928 95.0111 49.9016 95.5709C50.4105 96.1306 50.9957 96.5377 51.6573 96.7922C52.3443 97.0466 53.0313 97.1738 53.7182 97.1738C54.5833 97.1738 55.3721 97.0339 56.0845 96.754C56.8224 96.4741 57.4585 96.0543 57.9928 95.4945C58.5272 94.9348 58.947 94.2351 59.2523 93.3954C59.5576 92.5303 59.7103 91.5253 59.7103 90.3803V89.7315ZM68.1346 80.6098H71.455V100.342H68.1346V80.6098ZM68.0201 73.0911H71.5695V76.9459H68.0201V73.0911ZM77.7756 83.2432H74.7224V80.6098H77.7756V75.2284H81.0961V80.6098H86.3248V83.2432H81.0961V94.8075C81.0961 95.7744 81.3124 96.5505 81.7449 97.1357C82.1775 97.7209 82.839 98.0135 83.7295 98.0135C84.2893 98.0135 84.7727 97.9753 85.1798 97.899C85.6124 97.8227 86.0068 97.7209 86.363 97.5937L86.9355 100.151C86.4266 100.329 85.8668 100.469 85.2562 100.571C84.671 100.698 83.9713 100.761 83.157 100.761C82.0375 100.761 81.1342 100.596 80.4473 100.265C79.7603 99.9345 79.2132 99.4638 78.8061 98.8531C78.399 98.2425 78.1191 97.5173 77.9665 96.6777C77.8393 95.838 77.7756 94.922 77.7756 93.9297V83.2432ZM102.151 97.6318C101.439 98.4969 100.536 99.2475 99.4417 99.8836C98.3476 100.494 96.9864 100.8 95.3579 100.8C94.3656 100.8 93.4496 100.672 92.61 100.418C91.7958 100.189 91.0833 99.8327 90.4727 99.3493C89.8875 98.8404 89.4295 98.217 89.0987 97.4792C88.7679 96.7413 88.6026 95.8762 88.6026 94.8839C88.6026 93.5353 88.8824 92.4413 89.4422 91.6016C90.0274 90.7619 90.7907 90.1004 91.7322 89.617C92.699 89.1335 93.7804 88.79 94.9763 88.5865C96.1721 88.3829 97.4062 88.2557 98.6784 88.2048L102.075 88.0903V87.327C102.075 85.6477 101.719 84.4391 101.006 83.7012C100.294 82.9634 99.1364 82.5944 97.5334 82.5944C95.9559 82.5944 94.7982 82.8616 94.0603 83.3959C93.3224 83.9048 92.839 84.6172 92.61 85.5332L89.5949 85.1897C89.9511 83.3832 90.8035 82.0728 92.152 81.2586C93.5005 80.419 95.3325 79.9991 97.6479 79.9991C99.0728 79.9991 100.269 80.1772 101.235 80.5335C102.228 80.8642 103.029 81.3477 103.64 81.9838C104.25 82.6199 104.683 83.4086 104.937 84.3501C105.217 85.2915 105.357 86.3474 105.357 87.5178V100.342H102.151V97.6318ZM102.075 90.4566L98.9074 90.5711C97.5588 90.622 96.4393 90.7492 95.5488 90.9528C94.6582 91.1563 93.9458 91.4362 93.4115 91.7924C92.9026 92.1232 92.5337 92.543 92.3047 93.0519C92.1011 93.5608 91.9993 94.146 91.9993 94.8075C91.9993 95.7999 92.2919 96.6013 92.8772 97.212C93.4878 97.7972 94.4801 98.0898 95.8541 98.0898C97.8133 98.0898 99.3399 97.6064 100.434 96.6395C101.528 95.6726 102.075 94.3496 102.075 92.6702V90.4566ZM110.475 73.0911H113.795V100.342H110.475V73.0911ZM135.942 73.0911H139.644L150.216 100.342H146.399L143.537 92.7466H131.858L128.995 100.342H125.331L135.942 73.0911ZM142.468 89.6933L137.659 77.0604L132.927 89.6933H142.468ZM155.323 94.5785C155.552 95.9525 156.125 96.9194 157.041 97.4792C157.982 98.0135 159.254 98.2806 160.857 98.2806C162.537 98.2806 163.72 98.0008 164.407 97.441C165.119 96.8558 165.476 96.0925 165.476 95.151C165.476 94.7694 165.425 94.4132 165.323 94.0824C165.247 93.7262 165.081 93.4208 164.827 93.1664C164.572 92.8865 164.216 92.6448 163.758 92.4413C163.3 92.2377 162.702 92.0723 161.964 91.9451L159.445 91.5634C158.326 91.3853 157.346 91.1563 156.507 90.8764C155.667 90.5966 154.954 90.2403 154.369 89.8078C153.784 89.3498 153.339 88.8028 153.033 88.1667C152.754 87.5051 152.614 86.7164 152.614 85.8004C152.614 84.8844 152.804 84.0702 153.186 83.3577C153.593 82.6453 154.14 82.0474 154.827 81.5639C155.54 81.0551 156.367 80.6734 157.308 80.419C158.275 80.1391 159.318 79.9991 160.438 79.9991C161.862 79.9991 163.046 80.1391 163.987 80.419C164.954 80.6988 165.743 81.0805 166.353 81.5639C166.964 82.0474 167.435 82.6199 167.766 83.2814C168.096 83.943 168.351 84.6427 168.529 85.3805L165.514 85.8767C165.336 85.3424 165.132 84.8717 164.903 84.4646C164.674 84.0575 164.369 83.7267 163.987 83.4722C163.605 83.1924 163.135 82.9888 162.575 82.8616C162.041 82.7089 161.366 82.6326 160.552 82.6326C159.636 82.6326 158.873 82.7216 158.262 82.8998C157.652 83.0524 157.155 83.2687 156.774 83.5486C156.417 83.8285 156.163 84.1465 156.01 84.5027C155.858 84.8335 155.781 85.1897 155.781 85.5714C155.781 85.9785 155.832 86.3474 155.934 86.6782C156.036 86.9835 156.227 87.2634 156.507 87.5178C156.786 87.7468 157.168 87.9504 157.652 88.1285C158.135 88.3066 158.758 88.4593 159.522 88.5865L162.384 89.0445C164.7 89.4261 166.353 90.0877 167.346 91.0291C168.363 91.9705 168.872 93.3445 168.872 95.151C168.872 95.9907 168.707 96.7667 168.376 97.4792C168.045 98.1662 167.549 98.7768 166.888 99.3111C166.226 99.82 165.399 100.214 164.407 100.494C163.415 100.8 162.257 100.952 160.934 100.952C159.738 100.952 158.618 100.838 157.575 100.609C156.557 100.38 155.654 100.024 154.865 99.5401C154.077 99.0312 153.441 98.3697 152.957 97.5555C152.474 96.7413 152.194 95.749 152.117 94.5785H155.323ZM175.264 94.5785C175.493 95.9525 176.065 96.9194 176.981 97.4792C177.923 98.0135 179.195 98.2806 180.798 98.2806C182.477 98.2806 183.66 98.0008 184.347 97.441C185.06 96.8558 185.416 96.0925 185.416 95.151C185.416 94.7694 185.365 94.4132 185.263 94.0824C185.187 93.7262 185.021 93.4208 184.767 93.1664C184.513 92.8865 184.156 92.6448 183.698 92.4413C183.24 92.2377 182.642 92.0723 181.905 91.9451L179.386 91.5634C178.266 91.3853 177.286 91.1563 176.447 90.8764C175.607 90.5966 174.895 90.2403 174.309 89.8078C173.724 89.3498 173.279 88.8028 172.974 88.1667C172.694 87.5051 172.554 86.7164 172.554 85.8004C172.554 84.8844 172.745 84.0702 173.126 83.3577C173.533 82.6453 174.08 82.0474 174.767 81.5639C175.48 81.0551 176.307 80.6734 177.248 80.419C178.215 80.1391 179.258 79.9991 180.378 79.9991C181.803 79.9991 182.986 80.1391 183.927 80.419C184.894 80.6988 185.683 81.0805 186.294 81.5639C186.904 82.0474 187.375 82.6199 187.706 83.2814C188.037 83.943 188.291 84.6427 188.469 85.3805L185.454 85.8767C185.276 85.3424 185.072 84.8717 184.843 84.4646C184.614 84.0575 184.309 83.7267 183.927 83.4722C183.546 83.1924 183.075 82.9888 182.515 82.8616C181.981 82.7089 181.307 82.6326 180.492 82.6326C179.576 82.6326 178.813 82.7216 178.202 82.8998C177.592 83.0524 177.096 83.2687 176.714 83.5486C176.358 83.8285 176.103 84.1465 175.951 84.5027C175.798 84.8335 175.722 85.1897 175.722 85.5714C175.722 85.9785 175.773 86.3474 175.874 86.6782C175.976 86.9835 176.167 87.2634 176.447 87.5178C176.727 87.7468 177.108 87.9504 177.592 88.1285C178.075 88.3066 178.699 88.4593 179.462 88.5865L182.324 89.0445C184.64 89.4261 186.294 90.0877 187.286 91.0291C188.304 91.9705 188.813 93.3445 188.813 95.151C188.813 95.9907 188.647 96.7667 188.316 97.4792C187.986 98.1662 187.489 98.7768 186.828 99.3111C186.166 99.82 185.339 100.214 184.347 100.494C183.355 100.8 182.197 100.952 180.874 100.952C179.678 100.952 178.559 100.838 177.515 100.609C176.498 100.38 175.594 100.024 174.806 99.5401C174.017 99.0312 173.381 98.3697 172.897 97.5555C172.414 96.7413 172.134 95.749 172.058 94.5785H175.264ZM209.568 94.8075C209.237 96.7158 208.385 98.217 207.011 99.3111C205.662 100.405 203.716 100.952 201.171 100.952C198.169 100.952 195.866 100.049 194.263 98.2425C192.66 96.4105 191.859 93.8661 191.859 90.6093C191.859 88.9045 192.088 87.3906 192.546 86.0675C193.004 84.7444 193.64 83.6376 194.454 82.7471C195.294 81.8565 196.286 81.1823 197.431 80.7243C198.576 80.2409 199.823 79.9991 201.171 79.9991C202.698 79.9991 204.008 80.2409 205.102 80.7243C206.196 81.2077 207.087 81.882 207.774 82.7471C208.486 83.5867 209.008 84.5918 209.339 85.7622C209.695 86.9326 209.873 88.2175 209.873 89.617V91.2963H195.217C195.217 92.2886 195.345 93.2173 195.599 94.0824C195.879 94.922 196.26 95.6599 196.744 96.296C197.253 96.9067 197.876 97.3901 198.614 97.7463C199.352 98.1025 200.204 98.2806 201.171 98.2806C202.825 98.2806 204.034 97.9753 204.797 97.3647C205.56 96.7286 206.082 95.8762 206.362 94.8075H209.568ZM206.553 88.8155C206.553 87.8741 206.451 87.0217 206.247 86.2584C206.044 85.495 205.726 84.8462 205.293 84.3119C204.861 83.7521 204.301 83.3196 203.614 83.0142C202.927 82.7089 202.1 82.5563 201.133 82.5563C199.377 82.5563 198.003 83.0906 197.011 84.1592C196.044 85.2279 195.472 86.78 195.294 88.8155H206.553ZM215.419 83.2432H212.366V80.6098H215.419V75.2284H218.739V80.6098H223.968V83.2432H218.739V94.8075C218.739 95.7744 218.956 96.5505 219.388 97.1357C219.821 97.7209 220.482 98.0135 221.373 98.0135C221.933 98.0135 222.416 97.9753 222.823 97.899C223.256 97.8227 223.65 97.7209 224.006 97.5937L224.579 100.151C224.07 100.329 223.51 100.469 222.9 100.571C222.314 100.698 221.615 100.761 220.8 100.761C219.681 100.761 218.778 100.596 218.091 100.265C217.404 99.9345 216.857 99.4638 216.45 98.8531C216.042 98.2425 215.763 97.5173 215.61 96.6777C215.483 95.838 215.419 94.922 215.419 93.9297V83.2432ZM236.461 73.0911H240.812L249.59 96.1434L258.521 73.0911H262.72V100.342H259.475V78.8542L250.926 100.342H248.064L239.667 78.9305V100.342H236.461V73.0911ZM280.57 97.6318C279.857 98.4969 278.954 99.2475 277.86 99.8836C276.766 100.494 275.405 100.8 273.776 100.8C272.784 100.8 271.868 100.672 271.028 100.418C270.214 100.189 269.502 99.8327 268.891 99.3493C268.306 98.8404 267.848 98.217 267.517 97.4792C267.186 96.7413 267.021 95.8762 267.021 94.8839C267.021 93.5353 267.301 92.4413 267.861 91.6016C268.446 90.7619 269.209 90.1004 270.151 89.617C271.117 89.1335 272.199 88.79 273.395 88.5865C274.591 88.3829 275.825 88.2557 277.097 88.2048L280.494 88.0903V87.327C280.494 85.6477 280.137 84.4391 279.425 83.7012C278.712 82.9634 277.555 82.5944 275.952 82.5944C274.374 82.5944 273.217 82.8616 272.479 83.3959C271.741 83.9048 271.257 84.6172 271.028 85.5332L268.013 85.1897C268.369 83.3832 269.222 82.0728 270.57 81.2586C271.919 80.419 273.751 79.9991 276.066 79.9991C277.491 79.9991 278.687 80.1772 279.654 80.5335C280.646 80.8642 281.448 81.3477 282.058 81.9838C282.669 82.6199 283.102 83.4086 283.356 84.3501C283.636 85.2915 283.776 86.3474 283.776 87.5178V100.342H280.57V97.6318ZM280.494 90.4566L277.326 90.5711C275.977 90.622 274.858 90.7492 273.967 90.9528C273.077 91.1563 272.364 91.4362 271.83 91.7924C271.321 92.1232 270.952 92.543 270.723 93.0519C270.52 93.5608 270.418 94.146 270.418 94.8075C270.418 95.7999 270.71 96.6013 271.296 97.212C271.906 97.7972 272.899 98.0898 274.273 98.0898C276.232 98.0898 277.758 97.6064 278.852 96.6395C279.947 95.6726 280.494 94.3496 280.494 92.6702V90.4566ZM288.817 80.6098H292.099V83.6249C293.066 82.3273 294.135 81.3986 295.305 80.8388C296.476 80.279 297.71 79.9991 299.007 79.9991C301.246 79.9991 302.9 80.6098 303.969 81.8311C305.063 83.0524 305.61 84.8462 305.61 87.2125V100.342H302.29V87.8613C302.29 86.0294 301.959 84.7444 301.297 84.0066C300.636 83.2432 299.618 82.8616 298.244 82.8616C297.506 82.8616 296.768 82.9888 296.03 83.2432C295.318 83.4977 294.669 83.9048 294.084 84.4646C293.448 85.0243 292.964 85.6223 292.634 86.2584C292.303 86.869 292.137 87.6705 292.137 88.6628V100.342H288.817V80.6098ZM322.873 97.6318C322.161 98.4969 321.257 99.2475 320.163 99.8836C319.069 100.494 317.708 100.8 316.079 100.8C315.087 100.8 314.171 100.672 313.332 100.418C312.517 100.189 311.805 99.8327 311.194 99.3493C310.609 98.8404 310.151 98.217 309.82 97.4792C309.489 96.7413 309.324 95.8762 309.324 94.8839C309.324 93.5353 309.604 92.4413 310.164 91.6016C310.749 90.7619 311.512 90.1004 312.454 89.617C313.421 89.1335 314.502 88.79 315.698 88.5865C316.894 88.3829 318.128 88.2557 319.4 88.2048L322.797 88.0903V87.327C322.797 85.6477 322.44 84.4391 321.728 83.7012C321.016 82.9634 319.858 82.5944 318.255 82.5944C316.677 82.5944 315.52 82.8616 314.782 83.3959C314.044 83.9048 313.561 84.6172 313.332 85.5332L310.316 85.1897C310.673 83.3832 311.525 82.0728 312.874 81.2586C314.222 80.419 316.054 79.9991 318.369 79.9991C319.794 79.9991 320.99 80.1772 321.957 80.5335C322.949 80.8642 323.751 81.3477 324.361 81.9838C324.972 82.6199 325.405 83.4086 325.659 84.3501C325.939 85.2915 326.079 86.3474 326.079 87.5178V100.342H322.873V97.6318ZM322.797 90.4566L319.629 90.5711C318.28 90.622 317.161 90.7492 316.27 90.9528C315.38 91.1563 314.667 91.4362 314.133 91.7924C313.624 92.1232 313.255 92.543 313.026 93.0519C312.823 93.5608 312.721 94.146 312.721 94.8075C312.721 95.7999 313.013 96.6013 313.599 97.212C314.209 97.7972 315.202 98.0898 316.576 98.0898C318.535 98.0898 320.061 97.6064 321.156 96.6395C322.25 95.6726 322.797 94.3496 322.797 92.6702V90.4566ZM334.479 102.174C334.759 103.369 335.293 104.222 336.082 104.731C336.896 105.24 338.155 105.494 339.86 105.494C341.947 105.494 343.384 104.909 344.173 103.738C344.987 102.593 345.394 100.914 345.394 98.7005V96.6013C344.631 97.67 343.702 98.4969 342.608 99.0821C341.539 99.6673 340.28 99.96 338.83 99.96C337.405 99.96 336.158 99.7055 335.089 99.1966C334.046 98.6623 333.181 97.9499 332.494 97.0593C331.807 96.1434 331.286 95.0874 330.929 93.8916C330.599 92.6957 330.433 91.4108 330.433 90.0368C330.433 88.5356 330.637 87.1743 331.044 85.953C331.451 84.7063 332.036 83.6503 332.799 82.7853C333.563 81.8947 334.479 81.2077 335.547 80.7243C336.642 80.2409 337.863 79.9991 339.211 79.9991C340.305 79.9991 341.387 80.2281 342.455 80.6861C343.55 81.1187 344.542 81.9329 345.432 83.1287V80.6098H348.715V97.1357C348.715 98.8404 348.587 100.367 348.333 101.716C348.104 103.09 347.659 104.247 346.997 105.189C346.361 106.156 345.471 106.893 344.326 107.402C343.181 107.911 341.705 108.166 339.898 108.166C337.303 108.166 335.268 107.695 333.792 106.754C332.316 105.838 331.451 104.311 331.196 102.174H334.479ZM345.471 89.7315C345.471 88.4338 345.318 87.3525 345.013 86.4874C344.707 85.5968 344.287 84.8717 343.753 84.3119C343.219 83.7521 342.595 83.3577 341.883 83.1287C341.196 82.8743 340.471 82.7471 339.708 82.7471C338.893 82.7471 338.13 82.887 337.418 83.1669C336.731 83.4214 336.12 83.8412 335.586 84.4264C335.077 85.0116 334.67 85.7622 334.364 86.6782C334.084 87.5942 333.944 88.701 333.944 89.9986C333.944 91.3217 334.097 92.4413 334.402 93.3572C334.733 94.2732 335.153 95.0111 335.662 95.5709C336.171 96.1306 336.756 96.5377 337.418 96.7922C338.105 97.0466 338.792 97.1738 339.479 97.1738C340.344 97.1738 341.132 97.0339 341.845 96.754C342.583 96.4741 343.219 96.0543 343.753 95.4945C344.287 94.9348 344.707 94.2351 345.013 93.3954C345.318 92.5303 345.471 91.5253 345.471 90.3803V89.7315ZM370.879 94.8075C370.548 96.7158 369.696 98.217 368.322 99.3111C366.973 100.405 365.027 100.952 362.482 100.952C359.48 100.952 357.177 100.049 355.574 98.2425C353.971 96.4105 353.17 93.8661 353.17 90.6093C353.17 88.9045 353.399 87.3906 353.857 86.0675C354.315 84.7444 354.951 83.6376 355.765 82.7471C356.605 81.8565 357.597 81.1823 358.742 80.7243C359.887 80.2409 361.134 79.9991 362.482 79.9991C364.009 79.9991 365.319 80.2409 366.413 80.7243C367.507 81.2077 368.398 81.882 369.085 82.7471C369.797 83.5867 370.319 84.5918 370.65 85.7622C371.006 86.9326 371.184 88.2175 371.184 89.617V91.2963H356.528C356.528 92.2886 356.656 93.2173 356.91 94.0824C357.19 94.922 357.571 95.6599 358.055 96.296C358.564 96.9067 359.187 97.3901 359.925 97.7463C360.663 98.1025 361.515 98.2806 362.482 98.2806C364.136 98.2806 365.345 97.9753 366.108 97.3647C366.871 96.7286 367.393 95.8762 367.673 94.8075H370.879ZM367.864 88.8155C367.864 87.8741 367.762 87.0217 367.558 86.2584C367.355 85.495 367.037 84.8462 366.604 84.3119C366.172 83.7521 365.612 83.3196 364.925 83.0142C364.238 82.7089 363.411 82.5563 362.444 82.5563C360.688 82.5563 359.314 83.0906 358.322 84.1592C357.355 85.2279 356.783 86.78 356.605 88.8155H367.864ZM375.585 80.6098H378.867V83.6249C379.758 82.4036 380.737 81.5003 381.806 80.9151C382.875 80.3045 383.969 79.9991 385.088 79.9991C386.564 79.9991 387.747 80.3172 388.638 80.9533C389.554 81.5894 390.228 82.5054 390.661 83.7012C391.551 82.4799 392.569 81.5639 393.714 80.9533C394.859 80.3172 396.08 79.9991 397.378 79.9991C399.312 79.9991 400.8 80.5335 401.843 81.6021C402.912 82.6453 403.446 84.3373 403.446 86.6782V100.342H400.126V87.4415C400.126 86.551 400.049 85.8131 399.897 85.2279C399.744 84.6172 399.515 84.1465 399.21 83.8157C398.93 83.4595 398.574 83.2178 398.141 83.0906C397.709 82.9379 397.212 82.8616 396.653 82.8616C396.067 82.8616 395.457 82.9634 394.821 83.1669C394.185 83.3705 393.561 83.7267 392.951 84.2356C392.442 84.6681 392.022 85.1897 391.691 85.8004C391.36 86.411 391.195 87.1107 391.195 87.8995V100.342H387.874V87.4797C387.874 85.7495 387.569 84.5536 386.959 83.8921C386.373 83.2051 385.521 82.8616 384.401 82.8616C383.104 82.8616 381.882 83.3959 380.737 84.4646C380.305 84.8717 379.885 85.3933 379.478 86.0294C379.096 86.6655 378.905 87.5178 378.905 88.5865V100.342H375.585V80.6098ZM425.519 94.8075C425.188 96.7158 424.336 98.217 422.962 99.3111C421.613 100.405 419.667 100.952 417.122 100.952C414.12 100.952 411.817 100.049 410.214 98.2425C408.611 96.4105 407.81 93.8661 407.81 90.6093C407.81 88.9045 408.039 87.3906 408.497 86.0675C408.955 84.7444 409.591 83.6376 410.405 82.7471C411.245 81.8565 412.237 81.1823 413.382 80.7243C414.527 80.2409 415.774 79.9991 417.122 79.9991C418.649 79.9991 419.959 80.2409 421.053 80.7243C422.147 81.2077 423.038 81.882 423.725 82.7471C424.437 83.5867 424.959 84.5918 425.29 85.7622C425.646 86.9326 425.824 88.2175 425.824 89.617V91.2963H411.168C411.168 92.2886 411.295 93.2173 411.55 94.0824C411.83 94.922 412.211 95.6599 412.695 96.296C413.204 96.9067 413.827 97.3901 414.565 97.7463C415.303 98.1025 416.155 98.2806 417.122 98.2806C418.776 98.2806 419.985 97.9753 420.748 97.3647C421.511 96.7286 422.033 95.8762 422.313 94.8075H425.519ZM422.504 88.8155C422.504 87.8741 422.402 87.0217 422.198 86.2584C421.995 85.495 421.677 84.8462 421.244 84.3119C420.812 83.7521 420.252 83.3196 419.565 83.0142C418.878 82.7089 418.051 82.5563 417.084 82.5563C415.328 82.5563 413.954 83.0906 412.962 84.1592C411.995 85.2279 411.423 86.78 411.245 88.8155H422.504ZM430.225 80.6098H433.507V83.6249C434.474 82.3273 435.543 81.3986 436.713 80.8388C437.884 80.279 439.118 79.9991 440.415 79.9991C442.654 79.9991 444.308 80.6098 445.377 81.8311C446.471 83.0524 447.018 84.8462 447.018 87.2125V100.342H443.698V87.8613C443.698 86.0294 443.367 84.7444 442.705 84.0066C442.044 83.2432 441.026 82.8616 439.652 82.8616C438.914 82.8616 438.176 82.9888 437.438 83.2432C436.726 83.4977 436.077 83.9048 435.492 84.4646C434.856 85.0243 434.372 85.6223 434.042 86.2584C433.711 86.869 433.545 87.6705 433.545 88.6628V100.342H430.225V80.6098ZM453.137 83.2432H450.083V80.6098H453.137V75.2284H456.457V80.6098H461.686V83.2432H456.457V94.8075C456.457 95.7744 456.673 96.5505 457.106 97.1357C457.538 97.7209 458.2 98.0135 459.09 98.0135C459.65 98.0135 460.134 97.9753 460.541 97.899C460.973 97.8227 461.368 97.7209 461.724 97.5937L462.296 100.151C461.788 100.329 461.228 100.469 460.617 100.571C460.032 100.698 459.332 100.761 458.518 100.761C457.398 100.761 456.495 100.596 455.808 100.265C455.121 99.9345 454.574 99.4638 454.167 98.8531C453.76 98.2425 453.48 97.5173 453.327 96.6777C453.2 95.838 453.137 94.922 453.137 93.9297V83.2432ZM474.904 83.2432H471.813V80.6098H474.904V78.8923C474.904 77.8237 475.057 76.9077 475.362 76.1444C475.693 75.381 476.125 74.7577 476.66 74.2742C477.219 73.7654 477.856 73.3964 478.568 73.1674C479.306 72.913 480.082 72.7858 480.896 72.7858C481.481 72.7858 482.041 72.8239 482.575 72.9003C483.11 72.9511 483.669 73.0656 484.255 73.2438L483.72 75.839C483.313 75.7118 482.919 75.6355 482.537 75.61C482.181 75.5592 481.825 75.5337 481.469 75.5337C480.578 75.5337 479.815 75.7754 479.179 76.2589C478.543 76.7169 478.224 77.5692 478.224 78.816V80.6098H483.224V83.2432H478.224V100.342H474.904V83.2432ZM494.577 100.952C493.076 100.952 491.74 100.711 490.569 100.227C489.399 99.7437 488.407 99.0567 487.592 98.1662C486.778 97.2756 486.155 96.1815 485.722 94.8839C485.29 93.5862 485.073 92.1359 485.073 90.533C485.073 88.93 485.302 87.4797 485.76 86.182C486.218 84.8844 486.867 83.7776 487.707 82.8616C488.547 81.9456 489.552 81.2459 490.722 80.7625C491.918 80.2536 493.241 79.9991 494.691 79.9991C496.167 79.9991 497.49 80.2409 498.661 80.7243C499.831 81.2077 500.823 81.9074 501.637 82.8234C502.477 83.714 503.113 84.7953 503.546 86.0675C503.978 87.3397 504.195 88.7773 504.195 90.3803C504.195 92.0087 503.966 93.4717 503.508 94.7694C503.075 96.067 502.439 97.1738 501.599 98.0898C500.785 99.0058 499.78 99.7182 498.584 100.227C497.388 100.711 496.053 100.952 494.577 100.952ZM494.615 98.2043C495.684 98.2043 496.6 98.0135 497.363 97.6318C498.126 97.2502 498.75 96.7158 499.233 96.0289C499.742 95.3419 500.111 94.5277 500.34 93.5862C500.569 92.6194 500.683 91.5634 500.683 90.4185C500.683 89.2989 500.569 88.2684 500.34 87.327C500.111 86.3856 499.742 85.5841 499.233 84.9225C498.75 84.2356 498.126 83.7012 497.363 83.3196C496.6 82.9379 495.684 82.7471 494.615 82.7471C493.546 82.7471 492.63 82.9379 491.867 83.3196C491.129 83.7012 490.506 84.2356 489.997 84.9225C489.513 85.5841 489.157 86.3856 488.928 87.327C488.699 88.2684 488.585 89.3116 488.585 90.4566C488.585 91.6016 488.699 92.6448 488.928 93.5862C489.157 94.5277 489.513 95.3419 489.997 96.0289C490.48 96.7158 491.104 97.2502 491.867 97.6318C492.63 98.0135 493.546 98.2043 494.615 98.2043ZM508.644 80.6098H511.927V83.6631C512.664 82.569 513.529 81.7293 514.522 81.1441C515.514 80.5589 516.57 80.2663 517.69 80.2663C518.377 80.2663 518.962 80.3172 519.445 80.419L519.025 83.5104C518.771 83.4595 518.517 83.4214 518.262 83.3959C518.008 83.345 517.728 83.3196 517.422 83.3196C516.812 83.3196 516.188 83.4341 515.552 83.6631C514.916 83.8666 514.318 84.2228 513.758 84.7317C513.199 85.2152 512.753 85.7749 512.423 86.411C512.117 87.0471 511.965 87.785 511.965 88.6247V100.342H508.644V80.6098ZM533.562 92.5939C533.867 94.5022 534.617 95.8889 535.813 96.754C537.035 97.5937 538.841 98.0135 541.233 98.0135C542.429 98.0135 543.421 97.8863 544.21 97.6318C545.024 97.3519 545.673 96.9957 546.156 96.5632C546.64 96.1052 546.983 95.5836 547.187 94.9984C547.39 94.3877 547.492 93.7516 547.492 93.0901C547.492 92.5557 547.429 92.0469 547.301 91.5634C547.174 91.0546 546.92 90.5966 546.538 90.1895C546.182 89.7824 545.673 89.4261 545.011 89.1208C544.375 88.8155 543.548 88.5738 542.531 88.3957L539.096 87.785C537.747 87.556 536.551 87.2507 535.508 86.869C534.465 86.4874 533.574 86.0039 532.836 85.4187C532.124 84.8081 531.577 84.0575 531.195 83.1669C530.839 82.2764 530.661 81.195 530.661 79.9228C530.661 78.676 530.915 77.582 531.424 76.6405C531.959 75.6991 532.671 74.9103 533.562 74.2742C534.452 73.6381 535.508 73.1674 536.729 72.8621C537.951 72.5568 539.274 72.4041 540.699 72.4041C542.505 72.4041 544.006 72.6077 545.202 73.0148C546.424 73.3964 547.416 73.918 548.179 74.5796C548.942 75.2411 549.515 76.0044 549.897 76.8695C550.304 77.7092 550.609 78.5743 550.813 79.4648L547.53 80.1136C547.327 79.3503 547.06 78.676 546.729 78.0908C546.424 77.4802 546.004 76.984 545.469 76.6024C544.96 76.1953 544.324 75.8899 543.561 75.6864C542.798 75.4828 541.869 75.381 540.775 75.381C539.528 75.381 538.485 75.4955 537.645 75.7245C536.806 75.9535 536.131 76.2716 535.623 76.6787C535.114 77.0604 534.745 77.5311 534.516 78.0908C534.312 78.6252 534.21 79.1976 534.21 79.8083C534.21 80.4698 534.287 81.0551 534.439 81.5639C534.617 82.0474 534.897 82.4799 535.279 82.8616C535.686 83.2178 536.208 83.5231 536.844 83.7776C537.48 84.0066 538.269 84.2101 539.21 84.3882L543.027 85.0752C545.851 85.6095 547.925 86.5001 549.248 87.7468C550.571 88.9681 551.232 90.7747 551.232 93.1664C551.232 94.2605 551.016 95.291 550.584 96.2579C550.176 97.1993 549.553 98.0262 548.713 98.7386C547.899 99.4511 546.869 100.011 545.622 100.418C544.375 100.825 542.912 101.029 541.233 101.029C539.63 101.029 538.167 100.863 536.844 100.532C535.546 100.227 534.414 99.731 533.447 99.044C532.48 98.357 531.704 97.4792 531.119 96.4105C530.534 95.3419 530.178 94.0697 530.05 92.5939H533.562ZM563.371 73.0911H567.073L577.645 100.342H573.829L570.966 92.7466H559.287L556.425 100.342H552.761L563.371 73.0911ZM569.897 89.6933L565.088 77.0604L560.356 89.6933H569.897ZM581.073 73.0911H590.195C592.205 73.0911 593.859 73.3074 595.157 73.7399C596.48 74.1725 597.51 74.7577 598.248 75.4955C599.011 76.2334 599.533 77.0985 599.813 78.0908C600.118 79.0577 600.271 80.0882 600.271 81.1823C600.271 82.3273 600.118 83.4214 599.813 84.4646C599.508 85.5078 598.973 86.4237 598.21 87.2125C597.447 88.0013 596.416 88.6247 595.119 89.0826C593.821 89.5406 592.18 89.7696 590.195 89.7696H584.547V100.342H581.073V73.0911ZM590.157 86.7927C591.48 86.7927 592.574 86.6655 593.439 86.411C594.304 86.1566 594.979 85.7876 595.462 85.3042C595.945 84.8208 596.276 84.2483 596.454 83.5867C596.658 82.8998 596.76 82.1364 596.76 81.2968C596.76 80.4317 596.658 79.6684 596.454 79.0068C596.251 78.3453 595.895 77.7982 595.386 77.3657C594.877 76.9331 594.19 76.6151 593.325 76.4115C592.485 76.1825 591.416 76.068 590.119 76.068H584.547V86.7927H590.157Z" fill="white"/>
<path d="M619.076 72.8056H622.804L633.451 100.25H629.608L626.725 92.6009H614.963L612.08 100.25H608.39L619.076 72.8056ZM625.649 89.5259L620.805 76.8031L616.039 89.5259H625.649ZM648.992 97.4056C648.172 98.5075 647.223 99.3659 646.147 99.9809C645.071 100.57 643.802 100.865 642.342 100.865C640.881 100.865 639.613 100.596 638.537 100.058C637.486 99.5197 636.615 98.7894 635.923 97.8669C635.231 96.9187 634.718 95.8041 634.385 94.5228C634.052 93.2416 633.886 91.8706 633.886 90.41C633.886 88.77 634.091 87.2966 634.501 85.9897C634.911 84.6572 635.487 83.5297 636.23 82.6072C636.999 81.6847 637.922 80.98 638.998 80.4931C640.1 80.0062 641.342 79.7628 642.726 79.7628C643.777 79.7628 644.84 79.9806 645.917 80.4162C646.993 80.8262 647.992 81.6206 648.915 82.7994V72.8056H652.259V100.25H648.992V97.4056ZM649.03 89.7181C649.03 88.1294 648.851 86.8994 648.492 86.0281C648.159 85.1312 647.595 84.3753 646.801 83.7603C646.237 83.2991 645.66 82.9787 645.071 82.7994C644.507 82.62 643.879 82.5303 643.187 82.5303C642.367 82.5303 641.599 82.6712 640.881 82.9531C640.189 83.235 639.574 83.6962 639.036 84.3369C638.524 84.9519 638.114 85.7591 637.806 86.7584C637.524 87.7322 637.383 88.9237 637.383 90.3331C637.383 91.7937 637.537 93.0237 637.845 94.0231C638.178 95.0225 638.601 95.8169 639.113 96.4062C639.651 96.9956 640.241 97.4184 640.881 97.6747C641.547 97.9309 642.227 98.0591 642.918 98.0591C643.662 98.0591 644.328 97.9694 644.917 97.79C645.507 97.6106 646.096 97.3031 646.685 96.8675C647.454 96.2525 648.031 95.4837 648.415 94.5612C648.825 93.6387 649.03 92.4728 649.03 91.0634V89.7181ZM657.052 80.3778H660.358V83.4144C661.254 82.1844 662.241 81.2747 663.317 80.6853C664.394 80.0703 665.495 79.7628 666.623 79.7628C668.109 79.7628 669.301 80.0831 670.198 80.7237C671.12 81.3644 671.799 82.2869 672.235 83.4912C673.132 82.2612 674.157 81.3387 675.31 80.7237C676.463 80.0831 677.693 79.7628 679 79.7628C680.947 79.7628 682.446 80.3009 683.497 81.3772C684.573 82.4278 685.111 84.1319 685.111 86.4894V100.25H681.767V87.2581C681.767 86.3612 681.69 85.6181 681.537 85.0287C681.383 84.4137 681.152 83.9397 680.845 83.6066C680.563 83.2478 680.204 83.0044 679.769 82.8762C679.333 82.7225 678.833 82.6456 678.269 82.6456C677.68 82.6456 677.065 82.7481 676.424 82.9531C675.784 83.1581 675.156 83.5169 674.541 84.0294C674.029 84.465 673.606 84.9903 673.273 85.6053C672.939 86.2203 672.773 86.925 672.773 87.7194V100.25H669.429V87.2966C669.429 85.5541 669.121 84.3497 668.506 83.6834C667.917 82.9916 667.059 82.6456 665.931 82.6456C664.624 82.6456 663.394 83.1837 662.241 84.26C661.805 84.67 661.383 85.1953 660.973 85.8359C660.588 86.4766 660.396 87.335 660.396 88.4112V100.25H657.052V80.3778ZM689.852 80.3778H693.196V100.25H689.852V80.3778ZM689.736 72.8056H693.311V76.6878H689.736V72.8056ZM698.024 80.3778H701.33V83.4144C702.303 82.1075 703.38 81.1722 704.558 80.6084C705.737 80.0447 706.98 79.7628 708.287 79.7628C710.542 79.7628 712.207 80.3778 713.284 81.6078C714.386 82.8378 714.936 84.6444 714.936 87.0275V100.25H711.592V87.6809C711.592 85.8359 711.259 84.5419 710.593 83.7987C709.927 83.03 708.902 82.6456 707.518 82.6456C706.775 82.6456 706.032 82.7737 705.289 83.03C704.571 83.2862 703.918 83.6962 703.328 84.26C702.688 84.8237 702.201 85.4259 701.868 86.0666C701.535 86.6816 701.368 87.4887 701.368 88.4881V100.25H698.024V80.3778ZM719.638 80.3778H722.982V100.25H719.638V80.3778ZM719.523 72.8056H723.097V76.6878H719.523V72.8056ZM729.963 94.4459C730.193 95.8297 730.77 96.8034 731.692 97.3672C732.64 97.9053 733.922 98.1744 735.536 98.1744C737.227 98.1744 738.419 97.8925 739.111 97.3287C739.828 96.7394 740.187 95.9706 740.187 95.0225C740.187 94.6381 740.136 94.2794 740.033 93.9462C739.956 93.5875 739.79 93.28 739.533 93.0237C739.277 92.7419 738.918 92.4984 738.457 92.2934C737.996 92.0884 737.394 91.9219 736.651 91.7937L734.114 91.4094C732.986 91.23 732 90.9994 731.154 90.7175C730.308 90.4356 729.591 90.0769 729.002 89.6412C728.412 89.18 727.964 88.6291 727.656 87.9884C727.374 87.3222 727.233 86.5278 727.233 85.6053C727.233 84.6828 727.426 83.8628 727.81 83.1453C728.22 82.4278 728.771 81.8256 729.463 81.3387C730.18 80.8262 731.013 80.4419 731.961 80.1856C732.935 79.9037 733.986 79.7628 735.113 79.7628C736.548 79.7628 737.74 79.9037 738.688 80.1856C739.662 80.4675 740.456 80.8519 741.071 81.3387C741.686 81.8256 742.16 82.4022 742.493 83.0684C742.826 83.7347 743.083 84.4394 743.262 85.1825L740.225 85.6822C740.046 85.1441 739.841 84.67 739.61 84.26C739.38 83.85 739.072 83.5169 738.688 83.2606C738.303 82.9787 737.829 82.7737 737.266 82.6456C736.728 82.4919 736.048 82.415 735.228 82.415C734.306 82.415 733.537 82.5047 732.922 82.6841C732.307 82.8378 731.808 83.0556 731.423 83.3375C731.064 83.6194 730.808 83.9397 730.654 84.2984C730.501 84.6316 730.424 84.9903 730.424 85.3747C730.424 85.7847 730.475 86.1562 730.578 86.4894C730.68 86.7969 730.872 87.0787 731.154 87.335C731.436 87.5656 731.82 87.7706 732.307 87.95C732.794 88.1294 733.422 88.2831 734.191 88.4112L737.073 88.8725C739.405 89.2569 741.071 89.9231 742.07 90.8712C743.095 91.8194 743.608 93.2031 743.608 95.0225C743.608 95.8681 743.441 96.6497 743.108 97.3672C742.775 98.0591 742.275 98.6741 741.609 99.2122C740.943 99.7247 740.11 100.122 739.111 100.404C738.111 100.711 736.945 100.865 735.613 100.865C734.408 100.865 733.281 100.75 732.23 100.519C731.205 100.288 730.296 99.9297 729.501 99.4428C728.707 98.9303 728.066 98.2641 727.579 97.4441C727.093 96.6241 726.811 95.6247 726.734 94.4459H729.963ZM747.508 83.03H744.433V80.3778H747.508V74.9581H750.852V80.3778H756.118V83.03H750.852V94.6766C750.852 95.6503 751.07 96.4319 751.505 97.0212C751.941 97.6106 752.607 97.9053 753.504 97.9053C754.068 97.9053 754.555 97.8669 754.965 97.79C755.4 97.7131 755.797 97.6106 756.156 97.4825L756.733 100.058C756.22 100.237 755.656 100.378 755.041 100.481C754.452 100.609 753.747 100.673 752.927 100.673C751.8 100.673 750.89 100.506 750.198 100.173C749.506 99.84 748.956 99.3659 748.546 98.7509C748.136 98.1359 747.854 97.4056 747.7 96.56C747.572 95.7144 747.508 94.7919 747.508 93.7925V83.03ZM759.296 80.3778H762.601V83.4528C763.344 82.3509 764.216 81.5053 765.215 80.9159C766.214 80.3266 767.278 80.0319 768.405 80.0319C769.097 80.0319 769.687 80.0831 770.174 80.1856L769.751 83.2991C769.494 83.2478 769.238 83.2094 768.982 83.1837C768.726 83.1325 768.444 83.1069 768.136 83.1069C767.521 83.1069 766.894 83.2222 766.253 83.4528C765.612 83.6578 765.01 84.0166 764.446 84.5291C763.883 85.0159 763.434 85.5797 763.101 86.2203C762.794 86.8609 762.64 87.6041 762.64 88.4497V100.25H759.296V80.3778ZM784.614 97.5209C783.896 98.3922 782.987 99.1481 781.885 99.7887C780.783 100.404 779.412 100.711 777.772 100.711C776.772 100.711 775.85 100.583 775.004 100.327C774.184 100.096 773.467 99.7375 772.852 99.2506C772.262 98.7381 771.801 98.1103 771.468 97.3672C771.135 96.6241 770.968 95.7528 770.968 94.7534C770.968 93.3953 771.25 92.2934 771.814 91.4478C772.403 90.6022 773.172 89.9359 774.12 89.4491C775.094 88.9622 776.183 88.6162 777.387 88.4112C778.592 88.2062 779.835 88.0781 781.116 88.0269L784.537 87.9116V87.1428C784.537 85.4516 784.178 84.2344 783.461 83.4912C782.743 82.7481 781.577 82.3766 779.963 82.3766C778.374 82.3766 777.208 82.6456 776.465 83.1837C775.722 83.6962 775.235 84.4137 775.004 85.3362L771.968 84.9903C772.327 83.1709 773.185 81.8512 774.543 81.0312C775.901 80.1856 777.746 79.7628 780.078 79.7628C781.513 79.7628 782.717 79.9422 783.691 80.3009C784.691 80.6341 785.498 81.1209 786.113 81.7616C786.728 82.4022 787.163 83.1966 787.42 84.1447C787.702 85.0928 787.842 86.1562 787.842 87.335V100.25H784.614V97.5209ZM784.537 90.2947L781.347 90.41C779.988 90.4612 778.861 90.5894 777.964 90.7944C777.067 90.9994 776.35 91.2812 775.812 91.64C775.299 91.9731 774.927 92.3959 774.697 92.9084C774.492 93.4209 774.389 94.0103 774.389 94.6766C774.389 95.6759 774.684 96.4831 775.273 97.0981C775.888 97.6875 776.888 97.9822 778.272 97.9822C780.245 97.9822 781.782 97.4953 782.884 96.5216C783.986 95.5478 784.537 94.2153 784.537 92.5241V90.2947ZM793.688 83.03H790.613V80.3778H793.688V74.9581H797.032V80.3778H802.298V83.03H797.032V94.6766C797.032 95.6503 797.25 96.4319 797.686 97.0212C798.121 97.6106 798.788 97.9053 799.685 97.9053C800.248 97.9053 800.735 97.8669 801.145 97.79C801.581 97.7131 801.978 97.6106 802.337 97.4825L802.913 100.058C802.401 100.237 801.837 100.378 801.222 100.481C800.633 100.609 799.928 100.673 799.108 100.673C797.98 100.673 797.071 100.506 796.379 100.173C795.687 99.84 795.136 99.3659 794.726 98.7509C794.316 98.1359 794.034 97.4056 793.88 96.56C793.752 95.7144 793.688 94.7919 793.688 93.7925V83.03ZM805.553 80.3778H808.897V100.25H805.553V80.3778ZM805.438 72.8056H809.013V76.6878H805.438V72.8056ZM822.643 100.865C821.131 100.865 819.786 100.622 818.607 100.135C817.428 99.6478 816.429 98.9559 815.609 98.0591C814.789 97.1622 814.161 96.0603 813.725 94.7534C813.29 93.4466 813.072 91.9859 813.072 90.3716C813.072 88.7572 813.303 87.2966 813.764 85.9897C814.225 84.6828 814.878 83.5681 815.724 82.6456C816.57 81.7231 817.582 81.0184 818.761 80.5316C819.965 80.0191 821.298 79.7628 822.758 79.7628C824.244 79.7628 825.577 80.0062 826.756 80.4931C827.934 80.98 828.934 81.6847 829.754 82.6072C830.599 83.5041 831.24 84.5931 831.676 85.8744C832.111 87.1556 832.329 88.6034 832.329 90.2178C832.329 91.8578 832.098 93.3312 831.637 94.6381C831.202 95.945 830.561 97.0597 829.715 97.9822C828.895 98.9047 827.883 99.6222 826.679 100.135C825.474 100.622 824.129 100.865 822.643 100.865ZM822.681 98.0975C823.758 98.0975 824.68 97.9053 825.449 97.5209C826.218 97.1366 826.845 96.5984 827.332 95.9066C827.845 95.2147 828.216 94.3947 828.447 93.4466C828.678 92.4728 828.793 91.4094 828.793 90.2562C828.793 89.1287 828.678 88.0909 828.447 87.1428C828.216 86.1947 827.845 85.3875 827.332 84.7212C826.845 84.0294 826.218 83.4912 825.449 83.1069C824.68 82.7225 823.758 82.5303 822.681 82.5303C821.605 82.5303 820.683 82.7225 819.914 83.1069C819.171 83.4912 818.543 84.0294 818.03 84.7212C817.543 85.3875 817.185 86.1947 816.954 87.1428C816.723 88.0909 816.608 89.1416 816.608 90.2947C816.608 91.4478 816.723 92.4984 816.954 93.4466C817.185 94.3947 817.543 95.2147 818.03 95.9066C818.517 96.5984 819.145 97.1366 819.914 97.5209C820.683 97.9053 821.605 98.0975 822.681 98.0975ZM836.426 80.3778H839.732V83.4144C840.705 82.1075 841.782 81.1722 842.96 80.6084C844.139 80.0447 845.382 79.7628 846.689 79.7628C848.944 79.7628 850.609 80.3778 851.686 81.6078C852.788 82.8378 853.338 84.6444 853.338 87.0275V100.25H849.994V87.6809C849.994 85.8359 849.661 84.5419 848.995 83.7987C848.329 83.03 847.304 82.6456 845.92 82.6456C845.177 82.6456 844.434 82.7737 843.691 83.03C842.973 83.2862 842.32 83.6962 841.73 84.26C841.09 84.8237 840.603 85.4259 840.27 86.0666C839.937 86.6816 839.77 87.4887 839.77 88.4881V100.25H836.426V80.3778Z" fill="white" fill-opacity="0.65"/>
</svg>
