<?xml version="1.0" encoding="UTF-8"?><svg id="Layer_1" xmlns="http://www.w3.org/2000/svg" viewBox="0 0 20 20"><defs><style>.cls-1{fill-rule:evenodd;}.cls-1,.cls-2{fill:#333;stroke-width:0px;}</style></defs><path class="cls-2" d="m8.83,4l7.12,7.12s.05.05.05.12-.04.11-.05.12l-4.6,4.6s-.05.05-.12.05-.11-.04-.12-.05l-7.12-7.12.03-4.8,4.8-.03m.38-2s0,0,0,0l-6.09.04c-.59,0-1.07.48-1.08,1.08l-.04,6.09c0,.29.11.57.32.77l7.39,7.39c.42.42.98.63,1.53.63s1.11-.21,1.53-.63l4.6-4.6c.85-.85.85-2.22,0-3.06l-7.39-7.39c-.2-.2-.48-.32-.77-.32h0Z"/><path class="cls-1" d="m7.56,7.63c.42-.42.42-1.11,0-1.53-.42-.42-1.11-.42-1.53,0-.42.42-.42,1.11,0,1.53s1.11.42,1.53,0Z"/></svg>