<?xml version="1.0" encoding="utf-8"?>
<svg focusable="false" viewBox="0 0 24 24" aria-hidden="true" id="Layer_1" data-name="Layer 1" xmlns="http://www.w3.org/2000/svg">
  <path d="M12,7.5H22a1,1,0,0,1,.71.29,1,1,0,0,1,0,1.42A1,1,0,0,1,22,9.5H12a1,1,0,0,1,0-2Z"></path>
  <path d="M12,14.5H22a1,1,0,0,1,.71.29,1,1,0,0,1,0,1.42,1,1,0,0,1-.71.29H12a1,1,0,0,1,0-2Z"></path>
  <path d="M8.81,11.5a.69.69,0,0,0-.22-.16.67.67,0,0,0-.28-.06.66.66,0,0,0-.27.06.87.87,0,0,0-.23.16L5.69,13.74V8.22a.7.7,0,0,0-.2-.49.69.69,0,0,0-1,0,.71.71,0,0,0-.21.49v5.49L2.19,11.5A.69.69,0,0,0,2,11.34a.67.67,0,0,0-.28-.06.66.66,0,0,0-.27.06.87.87,0,0,0-.23.16.75.75,0,0,0,0,1L5,16.5l3.8-4a.73.73,0,0,0,0-1Z"></path>
</svg>