<svg width="26" height="26" viewBox="0 0 26 26" fill="none" xmlns="http://www.w3.org/2000/svg">
<rect width="26" height="26" fill="white"/>
<g clip-path="url(#clip0_3815_28165)">
<mask id="mask0_3815_28165" style="mask-type:luminance" maskUnits="userSpaceOnUse" x="3" y="3" width="21" height="21">
<path d="M23.8 3H3V23.8H23.8V3Z" fill="white"/>
</mask>
<g mask="url(#mask0_3815_28165)">
<path d="M21.85 21.54H19.99C22.38 19.56 23.8 16.56 23.8 13.4C23.8 8.13 19.97 3.66 14.89 3.01C14.84 3.01 14.79 3 14.74 3C14.19 3 13.72 3.42 13.65 3.99C13.58 4.61 14 5.17 14.61 5.25C18.59 5.76 21.58 9.26 21.58 13.4C21.58 16.23 20.23 18.78 17.94 20.3V17.56C17.94 16.94 17.44 16.43 16.83 16.43C16.22 16.43 15.72 16.94 15.72 17.56V23.8H21.84C22.45 23.8 22.95 23.29 22.95 22.67C22.95 22.05 22.46 21.54 21.84 21.54H21.85Z" fill="#333333"/>
<path d="M12.19 21.55C8.21 21.04 5.21 17.54 5.21 13.4C5.21 10.57 6.56 8.02 8.85 6.5V9.24C8.85 9.86 9.35 10.37 9.96 10.37C10.57 10.37 11.07 9.86 11.07 9.24V3H4.95C4.34 3 3.84 3.51 3.84 4.13C3.84 4.75 4.34 5.26 4.95 5.26H6.81C4.42 7.24 3 10.24 3 13.4C3 18.67 6.83 23.14 11.91 23.79C11.96 23.79 12 23.79 12.05 23.79C12.61 23.79 13.08 23.37 13.15 22.8C13.23 22.18 12.8 21.62 12.19 21.54V21.55Z" fill="#333333"/>
</g>
<path d="M11.97 18.4L8.34002 14.8C7.75002 14.21 7.75002 13.26 8.34002 12.68C8.93002 12.1 9.89002 12.09 10.48 12.68L11.97 14.16L16.31 9.84997C16.9 9.25997 17.86 9.25997 18.45 9.84997C19.04 10.44 19.04 11.39 18.45 11.97L11.97 18.41V18.4Z" fill="#067D14"/>
</g>
<defs>
<clipPath id="clip0_3815_28165">
<rect width="20.8" height="20.8" fill="white" transform="translate(3 3)"/>
</clipPath>
</defs>
</svg>
