<svg width="26" height="26" viewBox="0 0 26 26" fill="none" xmlns="http://www.w3.org/2000/svg">
<g clip-path="url(#clip0_3815_28223)">
<rect width="26" height="26" fill="white"/>
<g clip-path="url(#clip1_3815_28223)">
<path d="M21.4519 21.1413H19.5895C21.9833 19.1651 23.3991 16.1592 23.3991 13.0008C23.3991 7.72934 19.5675 3.26216 14.488 2.61038C14.4388 2.60344 14.3895 2.59998 14.3386 2.59998C13.7886 2.59998 13.3217 3.02468 13.2521 3.58979C13.1774 4.20691 13.6069 4.77376 14.213 4.85176C18.1889 5.36141 21.1871 8.86476 21.1871 13.0008C21.1871 15.8281 19.8323 18.3833 17.5489 19.8966V17.156C17.5489 16.5337 17.0532 16.0258 16.442 16.0258C15.8326 16.0258 15.3368 16.5319 15.3368 17.156V23.2301V23.4H15.5032H21.4519C22.0614 23.4 22.5571 22.8938 22.5571 22.2715C22.5588 21.6474 22.0631 21.1413 21.4519 21.1413Z" fill="#333333"/>
<path d="M11.7885 21.1495C7.81083 20.6399 4.81273 17.1365 4.81273 13.0005C4.81273 10.1732 6.16748 7.618 8.45086 6.10468V8.84531C8.45086 9.46762 8.94658 9.9738 9.55775 9.9738C10.1672 9.9738 10.6646 9.46762 10.6646 8.84531V2.7712V2.60132H10.4966H4.54789C3.93842 2.60132 3.441 3.10749 3.441 3.73155C3.441 4.35386 3.93672 4.86004 4.54789 4.86004H6.41025C4.01651 6.8362 2.60065 9.84206 2.60065 13.0005C2.60065 18.272 6.43232 22.7391 11.5118 23.3909C11.5593 23.3961 11.6052 23.3996 11.651 23.3996C12.2061 23.3996 12.6781 22.9749 12.7477 22.4115C12.8241 21.7927 12.3929 21.2275 11.7885 21.1495Z" fill="#333333"/>
</g>
<g clip-path="url(#clip2_3815_28223)">
<path d="M19 13.6112C17.6848 13.6188 16.3968 13.2363 15.299 12.512C14.2012 11.7877 13.3428 10.7541 12.8324 9.54196C12.322 8.3298 12.1825 6.99351 12.4315 5.70207C12.6806 4.41063 13.307 3.22204 14.2315 2.2866C15.1561 1.35117 16.3373 0.710898 17.6257 0.446764C18.9142 0.182629 20.252 0.306491 21.47 0.802685C22.6881 1.29888 23.7316 2.14512 24.4687 3.2344C25.2058 4.32368 25.6034 5.60707 25.6111 6.92228V6.92228C25.6198 7.79656 25.4554 8.66392 25.1272 9.47432C24.799 10.2847 24.3136 11.0221 23.699 11.6439C23.0844 12.2658 22.3527 12.7598 21.5462 13.0974C20.7397 13.4351 19.8743 13.6097 19 13.6112Z" fill="#067D14"/>
<path d="M19 0.777715C20.2306 0.777715 21.4336 1.14264 22.4569 1.82635C23.4801 2.51006 24.2776 3.48183 24.7486 4.6188C25.2195 5.75576 25.3428 7.00684 25.1027 8.21383C24.8626 9.42083 24.27 10.5295 23.3998 11.3997C22.5296 12.2699 21.4209 12.8625 20.2139 13.1026C19.0069 13.3427 17.7558 13.2195 16.6189 12.7485C15.4819 12.2776 14.5101 11.4801 13.8264 10.4568C13.1427 9.43358 12.7778 8.23058 12.7778 6.99994C12.7827 5.35122 13.4398 3.77143 14.6057 2.6056C15.7715 1.43977 17.3513 0.782639 19 0.777715ZM19 -6.24198e-05C17.6155 -6.24198e-05 16.2622 0.41048 15.111 1.17965C13.9599 1.94882 13.0627 3.04207 12.5328 4.32115C12.003 5.60024 11.8644 7.0077 12.1345 8.36557C12.4046 9.72344 13.0713 10.9707 14.0503 11.9497C15.0292 12.9287 16.2765 13.5953 17.6344 13.8654C18.9922 14.1355 20.3997 13.9969 21.6788 13.4671C22.9579 12.9373 24.0511 12.0401 24.8203 10.8889C25.5895 9.73779 26 8.38441 26 6.99994C26.0038 6.07962 25.8253 5.16765 25.4749 4.31666C25.1245 3.46566 24.609 2.69247 23.9582 2.0417C23.3075 1.39093 22.5343 0.875461 21.6833 0.525027C20.8323 0.174592 19.9203 -0.00386948 19 -6.24198e-05Z" fill="white"/>
<path d="M15.5163 7.27532C15.4336 7.19576 15.3686 7.09963 15.3255 6.99321C15.2825 6.88679 15.2624 6.77248 15.2667 6.65776C15.2731 6.56423 15.3003 6.4733 15.3462 6.39153C15.392 6.30976 15.4555 6.23918 15.5319 6.18487C15.688 6.05797 15.8815 5.98583 16.0826 5.97954C16.1778 5.98025 16.2719 6.00011 16.3592 6.03792C16.4466 6.07573 16.5255 6.13073 16.5912 6.19965L18.1157 7.79643L21.4267 4.41232C21.57 4.27077 21.7634 4.19141 21.9649 4.19141C22.1664 4.19141 22.3597 4.27077 22.5031 4.41232C22.6399 4.55144 22.7214 4.73554 22.7326 4.93032C22.7416 5.01673 22.7324 5.10408 22.7056 5.18673C22.6788 5.26939 22.635 5.34551 22.577 5.41021L18.1149 9.87776L15.5163 7.27532Z" fill="#DCF2DE"/>
</g>
</g>
<defs>
<clipPath id="clip0_3815_28223">
<rect width="26" height="26" fill="white"/>
</clipPath>
<clipPath id="clip1_3815_28223">
<rect width="20.8" height="20.8" fill="white" transform="translate(2.59998 2.59998)"/>
</clipPath>
<clipPath id="clip2_3815_28223">
<rect width="14" height="14" fill="white" transform="translate(12)"/>
</clipPath>
</defs>
</svg>
