<svg width="24" height="24" viewBox="0 0 32 32" fill="none" xmlns="http://www.w3.org/2000/svg">
<path d="M24.42 16.06L15.94 7.58C15.57 7.21 15.07 7 14.55 7H10.27C9.75 7 9.25 7.21 8.88 7.58L7.58 8.88C7.21 9.25 7 9.75 7 10.27V14.8C7 15.32 7.21 15.57 7.58 15.94L16.06 24.42C16.83 25.19 18.07 25.19 18.84 24.42L24.42 18.84C25.19 18.07 25.19 16.83 24.42 16.06ZM11.44 10.52C11.35 10.98 10.97 11.35 10.51 11.44C9.68 11.59 8.98 10.88 9.13 10.06C9.22 9.6 9.59 9.22 10.05 9.14C10.88 8.98 11.6 9.7 11.43 10.53L11.44 10.52ZM19.28 14.82H18.08L17.69 17.16H18.86V17.93H17.55L17.22 20.01H16.3L16.65 17.93H14.77L14.43 20.01H13.52L13.85 17.93H12.73V17.16H13.98L14.37 14.82H13.14V14.05H14.51L14.84 12H15.76L15.41 14.05H17.29L17.62 12H18.54L18.21 14.05H19.28V14.82Z" fill="#333333"/>
<path d="M14.9 17.1601H16.76L17.15 14.8201H15.29L14.9 17.1601Z" fill="#333333"/>
</svg>
