<?xml version="1.0" encoding="UTF-8"?><svg id="Layer_1" xmlns="http://www.w3.org/2000/svg" viewBox="0 0 24 24"><defs><style>.cls-1{fill:#fff;}</style></defs><path class="cls-1" d="M22.71,6c-.13-.22-.31-.4-.54-.52L12.74,.19C12.51,.06,12.26,0,12,0s-.51,.06-.74,.19L1.82,5.48c-.22,.13-.41,.31-.54,.52-.13,.22-.2,.46-.2,.71v10.58c0,.25,.07,.49,.2,.71,.13,.22,.31,.4,.54,.52l9.44,5.29c.22,.13,.48,.19,.74,.19s.51-.07,.74-.19l9.44-5.29c.22-.13,.41-.31,.54-.52,.13-.22,.2-.46,.2-.71V6.71c0-.25-.07-.49-.2-.71Zm-1.8,10.94l-8.41,4.71v-2.67c-.17,.01-.33,.03-.5,.03s-.33-.01-.5-.02v2.67L3.09,16.94V7.58l2.57,1.44c.14-.3,.3-.6,.48-.88l-2.49-1.4L12,2.07l8.35,4.68-2.49,1.4c.18,.28,.34,.57,.48,.88l2.57-1.44v9.35Z"/><path class="cls-1" d="M12,6c-3.34,0-6,2.66-6,6s2.66,6,6,6,6-2.74,6-6-2.66-6-6-6Zm4.14,6.71l-3.44,3.36c-.19,.19-.45,.28-.7,.28s-.52-.1-.72-.3c-.39-.4-.38-1.03,.02-1.41l1.68-1.65h-4.43c-.55,0-1-.45-.99-1,0-.54,.45-1,1-1h4.43l-1.68-1.65c-.4-.39-.4-1.02-.02-1.41,.39-.39,1.02-.4,1.41-.02l3.44,3.36c.19,.19,.3,.45,.3,.71s-.11,.53-.3,.71Z"/></svg>