<svg width="24" height="24" viewBox="0 0 24 24" fill="none" xmlns="http://www.w3.org/2000/svg">
<path fill-rule="evenodd" clip-rule="evenodd" d="M2 0C0.895431 0 0 0.89543 0 2V22C0 23.1046 0.89543 24 2 24H22C23.1046 24 24 23.1046 24 22V2C24 0.895431 23.1046 0 22 0H2ZM2 3C2 2.44772 2.44772 2 3 2H21C21.5523 2 22 2.44772 22 3V10C22 10.5523 21.5523 11 21 11H3C2.44772 11 2 10.5523 2 10V3ZM5 6H19V5H5V6ZM5 8H14.3333V7H5V8ZM2 14C2 13.4477 2.44772 13 3 13H10C10.5523 13 11 13.4477 11 14V21C11 21.5523 10.5523 22 10 22H3C2.44772 22 2 21.5523 2 21V14ZM8.66156 17.0435C9.02378 17.2284 9.02542 17.7454 8.66439 17.9327L4.75713 19.959C4.4243 20.1316 4.02694 19.8901 4.02694 19.5152L4.02694 15.4939C4.02694 15.1204 4.42162 14.8787 4.7543 15.0486L8.66156 17.0435ZM14 13C13.4477 13 13 13.4477 13 14V21C13 21.5523 13.4477 22 14 22H21C21.5523 22 22 21.5523 22 21V14C22 13.4477 21.5523 13 21 13H14ZM17.0001 16C17.0001 16.5523 16.5524 17 16.0001 17C15.4478 17 15.0001 16.5523 15.0001 16C15.0001 15.4477 15.4478 15 16.0001 15C16.5524 15 17.0001 15.4477 17.0001 16ZM19.199 16.6563C19.4671 16.3702 19.9452 16.4901 20.0467 16.8689L20.9848 20.3709C21.0698 20.6884 20.8305 21.0002 20.5018 21.0002H16.146L16.1295 21H14.5944C14.2875 21 14.053 20.726 14.1004 20.4228L14.3414 18.8808C14.4016 18.495 14.8611 18.3241 15.1588 18.5767L16.3633 19.5985L17.1353 18.8574L19.199 16.6563Z" fill="#BDC1DD"/>
</svg>
