<?xml version="1.0" encoding="UTF-8"?><svg id="Layer_1" xmlns="http://www.w3.org/2000/svg" viewBox="0 0 24 24"><defs><style>.cls-1{fill:#323435;}.cls-1,.cls-2{stroke-width:0px;}.cls-2{fill:#333;}</style></defs><path class="cls-2" d="m4.06,15.04v4.95c0,.39.32.71.71.71h3.57c.39,0,.71-.32.71-.71v-4.6l-1.07-1.06h-3.21c-.39,0-.71.32-.71.71Z"/><path class="cls-2" d="m21,18.08c.32,0,.57-.26.57-.57h0c0-.32-.26-.57-.57-.57h-.61c-.08-.36-.22-.7-.42-1l.44-.44c.22-.22.22-.59,0-.81h0c-.22-.22-.59-.22-.81,0l-.45.45c-.3-.19-.63-.34-.99-.41v-.63c0-.32-.26-.57-.57-.57h0c-.32,0-.57.26-.57.57v.63c-.36.07-.7.22-.99.41l-.45-.45c-.22-.22-.59-.22-.81,0h0c-.22.22-.22.59,0,.81l.44.44c-.2.3-.35.64-.42,1h-.61c-.32,0-.57.26-.57.57h0c0,.32.26.57.57.57h.61c.07.37.21.71.41,1.02l-.42.42c-.22.22-.22.59,0,.81h0c.22.22.59.22.81,0l.42-.42c.31.2.65.35,1.02.43v.58c0,.32.26.57.57.57h0c.32,0,.57-.26.57-.57v-.58c.37-.08.72-.22,1.02-.43l.42.42c.22.22.59.22.81,0h0c.22-.22.22-.59,0-.81l-.42-.42c.2-.3.34-.65.41-1.02h.61-.02Zm-3.43,1.17c-.95,0-1.72-.77-1.72-1.72s.77-1.72,1.72-1.72,1.72.77,1.72,1.72-.77,1.72-1.72,1.72Z"/><path class="cls-1" d="m21.3,0H2.7C1.22,0,0,1.22,0,2.7v18.6c0,1.49,1.22,2.7,2.7,2.7h18.6c1.49,0,2.7-1.22,2.7-2.7V2.7C24,1.21,22.78,0,21.3,0ZM2.7,2h18.6c.38,0,.7.32.7.7v8.3h-2.26l-4.83-5.44c-.28-.32-.69-.5-1.12-.5h0c-.45,0-.87.2-1.15.54l-1.16,1.4-1.66-2.29c-.28-.39-.74-.62-1.22-.62h0c-.41,0-.79.16-1.08.46l-5.52,5.71V2.7c0-.38.32-.7.7-.7Zm11.66,9l-.4-.55-1.88-2.61,1.33-1.59c.1-.12.24-.18.38-.18s.27.06.37.17l4.24,4.77h-4.04Zm-1.23,0H2.67l5.57-5.76c.1-.1.23-.15.36-.15.15,0,.31.07.41.21l1.79,2.48.6.83,1.73,2.4Zm-2.12,11H2.7c-.38,0-.7-.32-.7-.7v-8.3h9v9Zm11-.7c0,.38-.32.7-.7.7h-8.3v-9h9v8.3Z"/><circle class="cls-1" cx="19.07" cy="5" r="1"/></svg>