<?xml version="1.0" encoding="UTF-8"?><svg id="Layer_1" xmlns="http://www.w3.org/2000/svg" viewBox="0 0 24 24"><defs><style>.cls-1{fill:#fff;}</style></defs><path class="cls-1" d="M18,17.37c-.08,0-.14,.02-.16,.04l-.86,.69v3.9s-13.98-.02-13.98-.02l.02-17.98h.98c0,.55,.45,1,1,1H15c.55,0,1-.45,1-1h.98l.02,.02v2.98s0,0,0,0h2v-2.98c0-1.12-.91-2.02-2.02-2.02h-.98c0-.55-.45-1-1-1h-3.59c-.21-.58-.76-1-1.41-1s-1.2,.42-1.41,1h-3.59c-.55,0-1,.45-1,1h-.98c-1.12,0-2.02,.91-2.02,2.02V21.98c0,1.12,.91,2.02,2.02,2.02h13.95c1.12,0,2.02-.91,2.02-2.02v-3.9l-.84-.68s-.08-.04-.16-.04ZM10,1c.28,0,.5,.22,.5,.5s-.22,.5-.5,.5-.5-.22-.5-.5,.22-.5,.5-.5Z"/><path class="cls-1" d="M22,8H14c-.55,0-1,.45-1,1v10c0,.36,.15,.55,.37,.55,.12,0,.26-.06,.41-.18l3.44-2.75c.21-.17,.5-.26,.78-.26s.57,.09,.78,.26l3.44,2.75c.15,.12,.29,.18,.41,.18,.22,0,.37-.2,.37-.55V9c0-.55-.45-1-1-1Z"/></svg>