<?xml version="1.0" encoding="utf-8"?>
<!-- Generator: Adobe Illustrator 27.8.1, SVG Export Plug-In . SVG Version: 6.00 Build 0)  -->
<svg version="1.0" id="Layer_1" xmlns="http://www.w3.org/2000/svg" xmlns:xlink="http://www.w3.org/1999/xlink" x="0px" y="0px"
	 viewBox="0 0 220 220" style="enable-background:new 0 0 220 220;" xml:space="preserve">
<style type="text/css">
	.st0{opacity:0.5;fill-rule:evenodd;clip-rule:evenodd;fill:#B3B3B3;enable-background:new    ;}
	.st1{fill-rule:evenodd;clip-rule:evenodd;fill:#D7E2E5;}
	.st2{fill-rule:evenodd;clip-rule:evenodd;fill:#B5B5B5;}
	.st3{fill:#B5B5B5;}
	.st4{opacity:0.93;fill:#9BAFBA;enable-background:new    ;}
	.st5{opacity:0.5;fill-rule:evenodd;clip-rule:evenodd;fill:#9BAFBA;enable-background:new    ;}
	.st6{fill:#D9D9D9;}
	.st7{fill:#EBF1F2;}
	.st8{fill:#9BAFBA;}
	.st9{fill:#CFCFCF;}
	.st10{fill:#666666;}
	.st11{fill-rule:evenodd;clip-rule:evenodd;fill:#666666;}
	.st12{opacity:0.5;fill-rule:evenodd;clip-rule:evenodd;fill:#666666;enable-background:new    ;}
	.st13{opacity:0.5;fill-rule:evenodd;clip-rule:evenodd;fill:#6E6F6F;enable-background:new    ;}
</style>
<path class="st0" d="M183.8,96.1c0.7-2.9,1-6,1-9.2c0-22.2-18-40.2-40.2-40.2c-20.7,0-37.7,15.6-39.9,35.7l-4-1
	c2.7-21.9,21.4-38.9,44-38.9c24.5,0,44.3,19.8,44.3,44.3c0,5.4-1,10.5-2.7,15.3L183.8,96.1z"/>
<path class="st1" d="M75.6,145.5c-0.9-1.8-0.6-3.9,0.6-5.4l22.6-27.7c0.5-0.7,1.2-1.2,2-1.5L173,81.7c2.6-1,5.5,0.2,6.5,2.8l21.4,53
	c1,2.6-0.2,5.5-2.8,6.5L126,173.2c-0.8,0.3-1.7,0.4-2.6,0.3l-33.9-5c-1.6-0.2-3-1.2-3.7-2.7L75.6,145.5z M98.7,140.4
	c1.5,3.8-0.2,8-3.8,9.5c-3.6,1.5-7.8-0.4-9.3-4.2s0.2-8,3.8-9.5C93,134.7,97.2,136.6,98.7,140.4z M154.2,103.4
	c0.4,0,0.7,0.3,0.7,0.7v16.6h16.5c0.4,0,0.7,0.3,0.7,0.7c0,0.4-0.3,0.7-0.7,0.7H155v16.6c0,0.4-0.3,0.7-0.7,0.7
	c-0.4,0-0.7-0.3-0.7-0.7v-16.6H137c-0.4,0-0.7-0.3-0.7-0.7c0-0.4,0.3-0.7,0.7-0.7h16.5v-16.6C153.5,103.7,153.9,103.4,154.2,103.4z"
	/>
<path class="st2" d="M85.5,61.8c0-2.8,2.2-5.1,4.9-5.1c2.7,0,4.9,2.3,4.9,5.1c0,2.8-2.2,5.1-4.9,5.1C87.7,66.9,85.5,64.6,85.5,61.8z
	 M90.4,58.2c-1.9,0-3.5,1.6-3.5,3.6c0,2,1.6,3.6,3.5,3.6s3.5-1.6,3.5-3.6C93.8,59.8,92.3,58.2,90.4,58.2z"/>
<path class="st3" d="M90.4,72.9c0.4,0,0.7-0.3,0.7-0.8c0-0.4-0.3-0.8-0.7-0.8s-0.7,0.3-0.7,0.8C89.7,72.6,90,72.9,90.4,72.9z"/>
<path class="st3" d="M98,69.7c0.3-0.3,0.3-0.8,0-1.1c-0.3-0.3-0.8-0.3-1,0c-0.3,0.3-0.3,0.8,0,1.1C97.3,70,97.7,70,98,69.7z"/>
<path class="st3" d="M100.4,62.6c0.4,0,0.7-0.3,0.7-0.8c0-0.4-0.3-0.8-0.7-0.8c-0.4,0-0.7,0.3-0.7,0.8
	C99.7,62.2,100,62.6,100.4,62.6z"/>
<path class="st3" d="M98,55c0.3-0.3,0.3-0.8,0-1.1c-0.3-0.3-0.8-0.3-1,0c-0.3,0.3-0.3,0.8,0,1.1C97.3,55.3,97.7,55.3,98,55z"/>
<path class="st3" d="M90.4,52.2c0.4,0,0.7-0.3,0.7-0.8c0-0.4-0.3-0.8-0.7-0.8s-0.7,0.3-0.7,0.8C89.7,51.8,90,52.2,90.4,52.2z"/>
<path class="st3" d="M83.8,55c0.3-0.3,0.3-0.8,0-1.1c-0.3-0.3-0.8-0.3-1,0c-0.3,0.3-0.3,0.8,0,1.1C83.1,55.3,83.5,55.3,83.8,55z"/>
<path class="st3" d="M80.4,62.6c0.4,0,0.7-0.3,0.7-0.8c0-0.4-0.3-0.8-0.7-0.8c-0.4,0-0.7,0.3-0.7,0.8C79.6,62.2,79.9,62.6,80.4,62.6
	z"/>
<path class="st3" d="M83.8,69.7c0.3-0.3,0.3-0.8,0-1.1c-0.3-0.3-0.8-0.3-1,0c-0.3,0.3-0.3,0.8,0,1.1C83.1,70,83.5,70,83.8,69.7z"/>
<path class="st4" d="M199.2,158.2c1.5,0,2.6-1.1,2.6-2.6s-1.2-2.6-2.6-2.6c-1.5,0-2.6,1.1-2.6,2.6S197.8,158.2,199.2,158.2z"/>
<path class="st5" d="M205.1,146.4c0.5,0.3,0.7,1,0.4,1.5l-0.9,1.6c-0.3,0.5-0.9,0.7-1.5,0.4c-0.5-0.3-0.7-1-0.4-1.5l0.9-1.6
	C204,146.3,204.6,146.1,205.1,146.4z"/>
<path class="st5" d="M210,154.3c0.1,0.6-0.3,1.1-0.9,1.2l-1.8,0.2c-0.6,0.1-1.1-0.4-1.2-0.9c-0.1-0.6,0.4-1.1,0.9-1.2l1.8-0.2
	C209.4,153.2,209.9,153.7,210,154.3z"/>
<path class="st5" d="M204.3,160.3c0.4-0.4,1.1-0.4,1.5,0.1l1.2,1.4c0.4,0.5,0.3,1.1-0.1,1.5c-0.4,0.4-1.1,0.4-1.5-0.1l-1.2-1.4
	C203.8,161.4,203.8,160.7,204.3,160.3z"/>
<path class="st5" d="M198.4,162.1c0.6,0.1,1,0.6,1,1.2l-0.2,1.8c-0.1,0.6-0.6,1-1.2,1c-0.6-0.1-1-0.6-1-1.2l0.2-1.8
	C197.3,162.5,197.8,162,198.4,162.1z"/>
<path class="st5" d="M193.3,159.2c0.3,0.5,0.1,1.2-0.4,1.5l-1.5,0.9c-0.5,0.3-1.2,0.1-1.5-0.4c-0.3-0.5-0.1-1.2,0.4-1.5l1.5-0.9
	C192.3,158.5,193,158.7,193.3,159.2z"/>
<path class="st5" d="M189.3,152.1c0.2-0.6,0.8-0.9,1.4-0.7l1.7,0.5c0.6,0.2,0.9,0.8,0.7,1.4c-0.2,0.6-0.8,0.9-1.4,0.7l-1.7-0.5
	C189.4,153.3,189.1,152.7,189.3,152.1z"/>
<path class="st5" d="M195.7,145.6c0.6-0.2,1.2,0.1,1.4,0.6l0.6,1.7c0.2,0.6-0.1,1.2-0.6,1.4c-0.6,0.2-1.2-0.1-1.4-0.6l-0.6-1.7
	C194.9,146.4,195.2,145.8,195.7,145.6z"/>
<path class="st6" d="M179.9,158.4c1,0,1.8-0.8,1.8-1.8s-0.8-1.8-1.8-1.8c-1,0-1.8,0.8-1.8,1.8S178.9,158.4,179.9,158.4z"/>
<path class="st7" d="M34.5,92.9c12.7,0,23-10.3,23-23c0-12.7-10.3-23-23-23s-23,10.3-23,23C11.5,82.5,21.8,92.9,34.5,92.9z"/>
<path class="st8" d="M109,52.1c1,0,1.8-0.8,1.8-1.8c0-1-0.8-1.8-1.8-1.8c-1,0-1.8,0.8-1.8,1.8C107.2,51.3,108,52.1,109,52.1z"/>
<path class="st9" d="M102.5,180.7c1.1,0,2.1-0.9,2.1-2.1s-0.9-2.1-2.1-2.1c-1.1,0-2.1,0.9-2.1,2.1S101.3,180.7,102.5,180.7z"/>
<path class="st8" d="M97.5,187.1c0.9,0,1.5-0.7,1.5-1.5s-0.7-1.5-1.5-1.5c-0.9,0-1.5,0.7-1.5,1.5S96.6,187.1,97.5,187.1z"/>
<path class="st9" d="M31.3,114.8c-1.1,0-2.1,0.9-2.1,2c0,1.1,0.9,2.1,2.1,2.1s2.1-0.9,2.1-2.1C33.4,115.8,32.5,114.8,31.3,114.8z"/>
<path class="st8" d="M36.3,108.4c-0.9,0-1.5,0.7-1.5,1.5s0.7,1.5,1.5,1.5c0.9,0,1.5-0.7,1.5-1.5S37.2,108.4,36.3,108.4z"/>
<path class="st10" d="M65.9,68.8c-1.4-0.5-2.8-0.6-4.3-0.4l-20.4,3.9c-2.8,0.5-5,2.5-6,5.2l-3.1,9c-0.9,2.7-0.3,5.6,1.6,7.7l14,15.6
	c0.9,1,2.1,1.8,3.3,2.2l30,10.2l-1.2,1.6l-29.4-10c-1.6-0.5-3-1.5-4.1-2.7l-14-15.6c-2.3-2.6-3.1-6.3-1.9-9.6l3.1-9
	c1.1-3.3,3.9-5.8,7.4-6.4l20.4-3.9c1.8-0.3,3.6-0.2,5.3,0.5l56.2,21.4l-0.7,1.7L65.9,68.8z"/>
<path class="st11" d="M51.6,84.1c-1.9-1.7-4.8-1.4-6.5,0.5c-1.7,1.9-1.4,4.8,0.5,6.5c1.9,1.7,4.8,1.4,6.5-0.5
	C53.7,88.7,53.5,85.8,51.6,84.1z M44,83.6c2.2-2.6,6.1-2.9,8.6-0.6c2.6,2.2,2.9,6.1,0.6,8.6c-2.2,2.6-6.1,2.9-8.6,0.6
	C42,90,41.7,86.2,44,83.6z"/>
<path class="st11" d="M190.4,129.2L173,86.1c-1.8-4.3-6.7-6.4-11-4.7l-66.1,26.7c-1.3,0.5-2.5,1.4-3.4,2.5L73,134.6
	c-2.1,2.6-2.5,6.2-1,9.2l7.4,14.7c1.2,2.5,3.6,4.2,6.3,4.6l29.8,4.4c1.5,0.2,3,0,4.4-0.5l65.9-26.6
	C190.1,138.5,192.2,133.6,190.4,129.2z M71.5,133.4c-2.6,3.2-3.1,7.5-1.2,11.2l7.4,14.7c1.5,3,4.4,5.1,7.7,5.6l29.7,4.4
	c1.8,0.3,3.7,0,5.4-0.6l65.9-26.6c5.3-2.1,7.9-8.2,5.7-13.5l-17.4-43.1c-2.1-5.3-8.2-7.9-13.5-5.7l-66.1,26.7c-1.6,0.7-3,1.7-4.1,3
	L71.5,133.4z"/>
<path class="st12" d="M70.1,131.9c-1-0.3-2-0.6-3.1-0.8l0.4-2c1.2,0.2,2.3,0.6,3.3,0.9c1,0.3,2.2,0.6,3,0.9l-1.2,1.8
	C71.6,132.2,71.1,132.2,70.1,131.9L70.1,131.9z M63.3,130.8c-1.6,0.2-3.2,0.9-4.8,2.4c-1.9,1.9-3.6,2.8-5.3,3.4l-0.7-2
	c1.3-0.5,2.8-1.3,4.5-2.9c1.9-1.8,3.9-2.7,6-3L63.3,130.8z M49.2,137.4c-1.6,0.2-3.3,0.5-5.4,1.5L43,137c2.3-1.1,4.2-1.4,5.9-1.6
	L49.2,137.4z"/>
<path class="st13" d="M88.1,139.1c1.4,0.8,3.3,2.7,5,5l-1.7,1.2c-1.6-2.3-3.3-3.9-4.4-4.5l0.4-0.9L88.1,139.1z M95.5,148.2
	c1.9,4,2.8,9,0.7,13.9l-1.9-0.8c1.8-4.1,1.1-8.4-0.6-12.2L95.5,148.2z M54.3,158.8c-1.8,0-3.4,0.3-4.9,0.8l-0.7-2
	c1.7-0.6,3.6-0.9,5.6-0.9c2.8,0,5.1,0.4,7.1,1.2l-0.7,1.9C58.9,159.2,56.8,158.8,54.3,158.8z M46.4,161c-2.8,1.7-5.2,4.1-7.4,6.9
	l-1.6-1.3c2.3-2.9,4.9-5.6,8-7.4L46.4,161z M68.4,164.9c-1.3-1.1-2.5-2.2-3.8-3.1l1.2-1.7c1.5,1,2.8,2.2,4.1,3.3
	c0.4,0.4,0.9,0.8,1.3,1.1c1.7,1.4,3.4,2.7,5.5,3.5l-0.8,1.9c-2.4-1-4.3-2.4-6.1-3.9C69.3,165.7,68.8,165.3,68.4,164.9z M93.5,166
	c-1.4,1.6-3.2,3.1-5.4,4.5l-0.2,0.1l-0.2,0c-2.7,0.5-5.1,0.7-7.2,0.5l0.2-2.1c1.8,0.1,3.9,0,6.4-0.5c2-1.3,3.6-2.6,4.8-3.9L93.5,166
	z M33.8,175.3c-1,1.5-1.9,2.9-2.9,4.2l-1.7-1.2c0.9-1.3,1.9-2.7,2.8-4.2l0,0c1-1.5,2-3,3.1-4.6l1.7,1.2
	C35.8,172.2,34.8,173.7,33.8,175.3L33.8,175.3z M28.7,182.4c-1.3,1.6-2.8,2.9-4.4,3.7l-0.9-1.9c1.2-0.6,2.4-1.7,3.7-3.1L28.7,182.4z
	"/>
<path class="st11" d="M93,136.9c-3.6,0-6.5,2.9-6.5,6.5c0,3.6,2.9,6.5,6.5,6.5s6.5-2.9,6.5-6.5C99.4,139.8,96.5,136.9,93,136.9z
	 M84.6,143.4c0-4.6,3.7-8.3,8.3-8.3s8.3,3.7,8.3,8.3c0,4.6-3.7,8.3-8.3,8.3S84.6,148,84.6,143.4z"/>
</svg>
