<svg width="20" height="20" viewBox="0 0 20 20" fill="none" xmlns="http://www.w3.org/2000/svg">
<g clip-path="url(#clip0)">
<path d="M9.99998 19.4447C8.1211 19.4556 6.28117 18.9092 4.71285 17.8745C3.14453 16.8397 1.91826 15.3632 1.18911 13.6315C0.459956 11.8999 0.260671 9.99087 0.616453 8.14595C0.972235 6.30103 1.86711 4.60305 3.1879 3.26671C4.5087 1.93038 6.1961 1.01571 8.03673 0.638374C9.87736 0.261039 11.7885 0.437983 13.5286 1.14683C15.2687 1.85568 16.7595 3.0646 17.8125 4.62071C18.8655 6.17682 19.4334 8.01023 19.4444 9.88911V9.88911C19.4569 11.1381 19.2219 12.3772 18.7531 13.5349C18.2843 14.6926 17.5908 15.746 16.7128 16.6343C15.8348 17.5227 14.7896 18.2284 13.6374 18.7107C12.4853 19.1931 11.249 19.4425 9.99998 19.4447Z" fill="#067D14"/>
<path d="M10 1.1112C11.7581 1.1112 13.4766 1.63252 14.9384 2.60924C16.4002 3.58597 17.5395 4.97422 18.2123 6.59845C18.885 8.22269 19.0611 10.0099 18.7181 11.7342C18.3751 13.4585 17.5285 15.0423 16.2854 16.2855C15.0423 17.5286 13.4584 18.3752 11.7341 18.7182C10.0099 19.0612 8.22261 18.8851 6.59837 18.2123C4.97414 17.5396 3.58589 16.4003 2.60916 14.9385C1.63244 13.4767 1.11112 11.7581 1.11112 10.0001C1.11815 7.64477 2.05691 5.38793 3.72238 3.72246C5.38785 2.05699 7.64469 1.11823 10 1.1112V1.1112ZM10 8.5215e-05C8.02219 8.5215e-05 6.08879 0.586575 4.4443 1.68539C2.79981 2.7842 1.51809 4.34599 0.761209 6.17325C0.00433286 8.00051 -0.1937 10.0112 0.192152 11.951C0.578004 13.8908 1.53041 15.6726 2.92894 17.0712C4.32746 18.4697 6.10929 19.4221 8.0491 19.8079C9.98891 20.1938 11.9996 19.9958 13.8268 19.2389C15.6541 18.482 17.2159 17.2003 18.3147 15.5558C19.4135 13.9113 20 11.9779 20 10.0001C20.0054 8.68534 19.7505 7.38254 19.2499 6.16683C18.7493 4.95111 18.0129 3.84656 17.0832 2.91689C16.1535 1.98722 15.049 1.25083 13.8333 0.750212C12.6176 0.249592 11.3147 -0.00535344 10 8.5215e-05V8.5215e-05Z" fill="white"/>
<path d="M5.02322 10.3934C4.905 10.2797 4.81212 10.1424 4.75066 9.99037C4.68919 9.83833 4.66053 9.67503 4.66656 9.51116C4.67582 9.37754 4.71461 9.24765 4.78013 9.13083C4.84565 9.01401 4.93626 8.91318 5.04545 8.8356C5.26847 8.65431 5.54484 8.55126 5.83211 8.54227C5.96813 8.54329 6.10256 8.57165 6.22739 8.62567C6.35223 8.67969 6.46492 8.75826 6.55878 8.85671L8.73656 11.1378L13.4666 6.30338C13.6714 6.10117 13.9476 5.98779 14.2354 5.98779C14.5233 5.98779 14.7995 6.10117 15.0043 6.30338C15.1997 6.50212 15.3162 6.76512 15.3321 7.04338C15.345 7.16683 15.3319 7.29161 15.2936 7.40969C15.2553 7.52776 15.1927 7.63651 15.1099 7.72894L8.73545 14.1112L5.02322 10.3934Z" fill="white"/>
</g>
<defs>
<clipPath id="clip0">
<rect width="20" height="20" fill="white"/>
</clipPath>
</defs>
</svg>
