<svg width="135" height="16" viewBox="0 0 135 16" fill="none" xmlns="http://www.w3.org/2000/svg">
<path d="M6.11478 0.00599903H8.15178L13.9688 15H11.8688L10.2938 10.821H3.86778L2.29278 15H0.276781L6.11478 0.00599903ZM9.70578 9.141L7.05978 2.19L4.45578 9.141H9.70578ZM22.459 13.446C22.011 14.048 21.493 14.517 20.905 14.853C20.317 15.175 19.624 15.336 18.826 15.336C18.028 15.336 17.335 15.189 16.747 14.895C16.173 14.601 15.697 14.202 15.319 13.698C14.941 13.18 14.661 12.571 14.479 11.871C14.297 11.171 14.206 10.422 14.206 9.624C14.206 8.728 14.318 7.923 14.542 7.209C14.766 6.481 15.081 5.865 15.487 5.361C15.907 4.857 16.411 4.472 16.999 4.206C17.601 3.94 18.28 3.807 19.036 3.807C19.61 3.807 20.191 3.926 20.779 4.164C21.367 4.388 21.913 4.822 22.417 5.466V0.00599903H24.244V15H22.459V13.446ZM22.48 9.246C22.48 8.378 22.382 7.706 22.186 7.23C22.004 6.74 21.696 6.327 21.262 5.991C20.954 5.739 20.639 5.564 20.317 5.466C20.009 5.368 19.666 5.319 19.288 5.319C18.84 5.319 18.42 5.396 18.028 5.55C17.65 5.704 17.314 5.956 17.02 6.306C16.74 6.642 16.516 7.083 16.348 7.629C16.194 8.161 16.117 8.812 16.117 9.582C16.117 10.38 16.201 11.052 16.369 11.598C16.551 12.144 16.782 12.578 17.062 12.9C17.356 13.222 17.678 13.453 18.028 13.593C18.392 13.733 18.763 13.803 19.141 13.803C19.547 13.803 19.911 13.754 20.233 13.656C20.555 13.558 20.877 13.39 21.199 13.152C21.619 12.816 21.934 12.396 22.144 11.892C22.368 11.388 22.48 10.751 22.48 9.981V9.246ZM26.8628 4.143H28.6688V5.802C29.1588 5.13 29.6978 4.633 30.2858 4.311C30.8738 3.975 31.4758 3.807 32.0918 3.807C32.9038 3.807 33.5548 3.982 34.0448 4.332C34.5488 4.682 34.9198 5.186 35.1578 5.844C35.6478 5.172 36.2078 4.668 36.8378 4.332C37.4678 3.982 38.1398 3.807 38.8538 3.807C39.9178 3.807 40.7368 4.101 41.3108 4.689C41.8988 5.263 42.1928 6.194 42.1928 7.482V15H40.3658V7.902C40.3658 7.412 40.3238 7.006 40.2398 6.684C40.1558 6.348 40.0298 6.089 39.8618 5.907C39.7078 5.711 39.5118 5.578 39.2738 5.508C39.0358 5.424 38.7628 5.382 38.4548 5.382C38.1328 5.382 37.7968 5.438 37.4468 5.55C37.0968 5.662 36.7538 5.858 36.4178 6.138C36.1378 6.376 35.9068 6.663 35.7248 6.999C35.5428 7.335 35.4518 7.72 35.4518 8.154V15H33.6248V7.923C33.6248 6.971 33.4568 6.313 33.1208 5.949C32.7988 5.571 32.3298 5.382 31.7138 5.382C30.9998 5.382 30.3278 5.676 29.6978 6.264C29.4598 6.488 29.2288 6.775 29.0048 7.125C28.7948 7.475 28.6898 7.944 28.6898 8.532V15H26.8628V4.143ZM44.7827 4.143H46.6097V15H44.7827V4.143ZM44.7197 0.00599903H46.6727V2.127H44.7197V0.00599903ZM49.2475 4.143H51.0535V5.802C51.5855 5.088 52.1735 4.577 52.8175 4.269C53.4615 3.961 54.1405 3.807 54.8545 3.807C56.0865 3.807 56.9965 4.143 57.5845 4.815C58.1865 5.487 58.4875 6.474 58.4875 7.776V15H56.6605V8.133C56.6605 7.125 56.4785 6.418 56.1145 6.012C55.7505 5.592 55.1905 5.382 54.4345 5.382C54.0285 5.382 53.6225 5.452 53.2165 5.592C52.8245 5.732 52.4675 5.956 52.1455 6.264C51.7955 6.572 51.5295 6.901 51.3475 7.251C51.1655 7.587 51.0745 8.028 51.0745 8.574V15H49.2475V4.143ZM61.056 4.143H62.883V15H61.056V4.143ZM60.993 0.00599903H62.946V2.127H60.993V0.00599903ZM66.6968 11.829C66.8228 12.585 67.1378 13.117 67.6418 13.425C68.1598 13.719 68.8598 13.866 69.7418 13.866C70.6658 13.866 71.3168 13.712 71.6948 13.404C72.0868 13.082 72.2828 12.662 72.2828 12.144C72.2828 11.934 72.2548 11.738 72.1988 11.556C72.1568 11.36 72.0658 11.192 71.9258 11.052C71.7858 10.898 71.5898 10.765 71.3378 10.653C71.0858 10.541 70.7568 10.45 70.3508 10.38L68.9648 10.17C68.3488 10.072 67.8098 9.946 67.3478 9.792C66.8858 9.638 66.4938 9.442 66.1718 9.204C65.8498 8.952 65.6048 8.651 65.4368 8.301C65.2828 7.937 65.2058 7.503 65.2058 6.999C65.2058 6.495 65.3108 6.047 65.5208 5.655C65.7448 5.263 66.0458 4.934 66.4238 4.668C66.8158 4.388 67.2708 4.178 67.7888 4.038C68.3208 3.884 68.8948 3.807 69.5108 3.807C70.2948 3.807 70.9458 3.884 71.4638 4.038C71.9958 4.192 72.4298 4.402 72.7658 4.668C73.1018 4.934 73.3608 5.249 73.5428 5.613C73.7248 5.977 73.8648 6.362 73.9628 6.768L72.3038 7.041C72.2058 6.747 72.0938 6.488 71.9678 6.264C71.8418 6.04 71.6738 5.858 71.4638 5.718C71.2538 5.564 70.9948 5.452 70.6868 5.382C70.3928 5.298 70.0218 5.256 69.5738 5.256C69.0698 5.256 68.6498 5.305 68.3138 5.403C67.9778 5.487 67.7048 5.606 67.4948 5.76C67.2988 5.914 67.1588 6.089 67.0748 6.285C66.9908 6.467 66.9488 6.663 66.9488 6.873C66.9488 7.097 66.9768 7.3 67.0328 7.482C67.0888 7.65 67.1938 7.804 67.3478 7.944C67.5018 8.07 67.7118 8.182 67.9778 8.28C68.2438 8.378 68.5868 8.462 69.0068 8.532L70.5818 8.784C71.8558 8.994 72.7658 9.358 73.3118 9.876C73.8718 10.394 74.1518 11.15 74.1518 12.144C74.1518 12.606 74.0608 13.033 73.8788 13.425C73.6968 13.803 73.4238 14.139 73.0598 14.433C72.6958 14.713 72.2408 14.93 71.6948 15.084C71.1488 15.252 70.5118 15.336 69.7838 15.336C69.1258 15.336 68.5098 15.273 67.9358 15.147C67.3758 15.021 66.8788 14.825 66.4448 14.559C66.0108 14.279 65.6608 13.915 65.3948 13.467C65.1288 13.019 64.9748 12.473 64.9328 11.829H66.6968ZM76.2825 5.592H74.6025V4.143H76.2825V1.182H78.1095V4.143H80.9865V5.592H78.1095V11.955C78.1095 12.487 78.2285 12.914 78.4665 13.236C78.7045 13.558 79.0685 13.719 79.5585 13.719C79.8665 13.719 80.1325 13.698 80.3565 13.656C80.5945 13.614 80.8115 13.558 81.0075 13.488L81.3225 14.895C81.0425 14.993 80.7345 15.07 80.3985 15.126C80.0765 15.196 79.6915 15.231 79.2435 15.231C78.6275 15.231 78.1305 15.14 77.7525 14.958C77.3745 14.776 77.0735 14.517 76.8495 14.181C76.6255 13.845 76.4715 13.446 76.3875 12.984C76.3175 12.522 76.2825 12.018 76.2825 11.472V5.592ZM82.7228 4.143H84.5288V5.823C84.9348 5.221 85.4108 4.759 85.9568 4.437C86.5028 4.115 87.0838 3.954 87.6998 3.954C88.0778 3.954 88.3998 3.982 88.6658 4.038L88.4348 5.739C88.2948 5.711 88.1548 5.69 88.0148 5.676C87.8748 5.648 87.7208 5.634 87.5528 5.634C87.2168 5.634 86.8738 5.697 86.5238 5.823C86.1738 5.935 85.8448 6.131 85.5368 6.411C85.2288 6.677 84.9838 6.985 84.8018 7.335C84.6338 7.685 84.5498 8.091 84.5498 8.553V15H82.7228V4.143ZM96.5551 13.509C96.1631 13.985 95.6661 14.398 95.0641 14.748C94.4621 15.084 93.7131 15.252 92.8171 15.252C92.2711 15.252 91.7671 15.182 91.3051 15.042C90.8571 14.916 90.4651 14.72 90.1291 14.454C89.8071 14.174 89.5551 13.831 89.3731 13.425C89.1911 13.019 89.1001 12.543 89.1001 11.997C89.1001 11.255 89.2541 10.653 89.5621 10.191C89.8841 9.729 90.3041 9.365 90.8221 9.099C91.3541 8.833 91.9491 8.644 92.6071 8.532C93.2651 8.42 93.9441 8.35 94.6441 8.322L96.5131 8.259V7.839C96.5131 6.915 96.3171 6.25 95.9251 5.844C95.5331 5.438 94.8961 5.235 94.0141 5.235C93.1461 5.235 92.5091 5.382 92.1031 5.676C91.6971 5.956 91.4311 6.348 91.3051 6.852L89.6461 6.663C89.8421 5.669 90.3111 4.948 91.0531 4.5C91.7951 4.038 92.8031 3.807 94.0771 3.807C94.8611 3.807 95.5191 3.905 96.0511 4.101C96.5971 4.283 97.0381 4.549 97.3741 4.899C97.7101 5.249 97.9481 5.683 98.0881 6.201C98.2421 6.719 98.3191 7.3 98.3191 7.944V15H96.5551V13.509ZM96.5131 9.561L94.7701 9.624C94.0281 9.652 93.4121 9.722 92.9221 9.834C92.4321 9.946 92.0401 10.1 91.7461 10.296C91.4661 10.478 91.2631 10.709 91.1371 10.989C91.0251 11.269 90.9691 11.591 90.9691 11.955C90.9691 12.501 91.1301 12.942 91.4521 13.278C91.7881 13.6 92.3341 13.761 93.0901 13.761C94.1681 13.761 95.0081 13.495 95.6101 12.963C96.2121 12.431 96.5131 11.703 96.5131 10.779V9.561ZM101.513 5.592H99.8329V4.143H101.513V1.182H103.34V4.143H106.217V5.592H103.34V11.955C103.34 12.487 103.459 12.914 103.697 13.236C103.935 13.558 104.299 13.719 104.789 13.719C105.097 13.719 105.363 13.698 105.587 13.656C105.825 13.614 106.042 13.558 106.238 13.488L106.553 14.895C106.273 14.993 105.965 15.07 105.629 15.126C105.307 15.196 104.922 15.231 104.474 15.231C103.858 15.231 103.361 15.14 102.983 14.958C102.605 14.776 102.304 14.517 102.08 14.181C101.856 13.845 101.702 13.446 101.618 12.984C101.548 12.522 101.513 12.018 101.513 11.472V5.592ZM107.995 4.143H109.822V15H107.995V4.143ZM107.932 0.00599903H109.885V2.127H107.932V0.00599903ZM117.332 15.336C116.506 15.336 115.771 15.203 115.127 14.937C114.483 14.671 113.937 14.293 113.489 13.803C113.041 13.313 112.698 12.711 112.46 11.997C112.222 11.283 112.103 10.485 112.103 9.603C112.103 8.721 112.229 7.923 112.481 7.209C112.733 6.495 113.09 5.886 113.552 5.382C114.014 4.878 114.567 4.493 115.211 4.227C115.869 3.947 116.597 3.807 117.395 3.807C118.207 3.807 118.935 3.94 119.579 4.206C120.223 4.472 120.769 4.857 121.217 5.361C121.679 5.851 122.029 6.446 122.267 7.146C122.505 7.846 122.624 8.637 122.624 9.519C122.624 10.415 122.498 11.22 122.246 11.934C122.008 12.648 121.658 13.257 121.196 13.761C120.748 14.265 120.195 14.657 119.537 14.937C118.879 15.203 118.144 15.336 117.332 15.336ZM117.353 13.824C117.941 13.824 118.445 13.719 118.865 13.509C119.285 13.299 119.628 13.005 119.894 12.627C120.174 12.249 120.377 11.801 120.503 11.283C120.629 10.751 120.692 10.17 120.692 9.54C120.692 8.924 120.629 8.357 120.503 7.839C120.377 7.321 120.174 6.88 119.894 6.516C119.628 6.138 119.285 5.844 118.865 5.634C118.445 5.424 117.941 5.319 117.353 5.319C116.765 5.319 116.261 5.424 115.841 5.634C115.435 5.844 115.092 6.138 114.812 6.516C114.546 6.88 114.35 7.321 114.224 7.839C114.098 8.357 114.035 8.931 114.035 9.561C114.035 10.191 114.098 10.765 114.224 11.283C114.35 11.801 114.546 12.249 114.812 12.627C115.078 13.005 115.421 13.299 115.841 13.509C116.261 13.719 116.765 13.824 117.353 13.824ZM124.862 4.143H126.668V5.802C127.2 5.088 127.788 4.577 128.432 4.269C129.076 3.961 129.755 3.807 130.469 3.807C131.701 3.807 132.611 4.143 133.199 4.815C133.801 5.487 134.102 6.474 134.102 7.776V15H132.275V8.133C132.275 7.125 132.093 6.418 131.729 6.012C131.365 5.592 130.805 5.382 130.049 5.382C129.643 5.382 129.237 5.452 128.831 5.592C128.439 5.732 128.082 5.956 127.76 6.264C127.41 6.572 127.144 6.901 126.962 7.251C126.78 7.587 126.689 8.028 126.689 8.574V15H124.862V4.143Z" fill="white"/>
</svg>
