<?xml version="1.0" encoding="UTF-8"?><svg id="Layer_1" xmlns="http://www.w3.org/2000/svg" viewBox="0 0 20 20"><defs><style>.cls-1{fill:#333;stroke-width:0px;}</style></defs><path class="cls-1" d="m6.36,10.42c.07-.18-.07-.38-.26-.38h-2.11c-.44,0-.87-.07-1.26-.21.11,1.5,1.31,2.69,2.82,2.78l.82-2.19Z"/><path class="cls-1" d="m6.71,9.48h-2.71c-1.66,0-3-1.34-3-3h6c.17,0,.34.01.5.04.16.03.25.2.19.35l-.98,2.6Z"/><path class="cls-1" d="m12.52,6.52c-.16.03-.25.2-.19.35l.98,2.61h2.69c1.66,0,3-1.34,3-3h-6c-.16,0-.32.01-.48.04Z"/><path class="cls-1" d="m13.92,10.04c-.2,0-.33.2-.26.38l.82,2.18c1.49-.1,2.69-1.29,2.8-2.78-.4.14-.82.21-1.26.21h-2.09Z"/><path class="cls-1" d="m9.74,3.8c.09-.24.44-.24.53,0l4.56,12.13c.09.23-.15.46-.38.36l-2.91-1.28c-.84-.37-1.8-.38-2.65-.03l-3.36,1.39c-.23.09-.46-.13-.37-.36L9.74,3.8Z"/></svg>