<svg width="557" height="32" viewBox="0 0 557 32" fill="none" xmlns="http://www.w3.org/2000/svg">
<path d="M137.159 7.00599H142.409C143.501 7.00599 144.474 7.15999 145.328 7.46799C146.196 7.76199 146.924 8.21699 147.512 8.83299C148.114 9.44899 148.576 10.219 148.898 11.143C149.22 12.067 149.381 13.152 149.381 14.398C149.381 15.658 149.206 16.764 148.856 17.716C148.52 18.668 148.03 19.459 147.386 20.089C146.742 20.719 145.958 21.195 145.034 21.517C144.11 21.839 143.074 22 141.926 22H137.159V7.00599ZM142.01 20.32C143.872 20.32 145.23 19.802 146.084 18.766C146.938 17.716 147.365 16.274 147.365 14.44C147.365 13.53 147.267 12.718 147.071 12.004C146.889 11.29 146.595 10.688 146.189 10.198C145.797 9.69399 145.286 9.31599 144.656 9.06399C144.026 8.79799 143.277 8.66499 142.409 8.66499H139.091V20.32H142.01ZM151.94 11.143H153.767V22H151.94V11.143ZM151.877 7.00599H153.83V9.12699H151.877V7.00599ZM158.463 23.008C158.617 23.666 158.911 24.135 159.345 24.415C159.793 24.695 160.486 24.835 161.424 24.835C162.572 24.835 163.363 24.513 163.797 23.869C164.245 23.239 164.469 22.315 164.469 21.097V19.942C164.049 20.53 163.538 20.985 162.936 21.307C162.348 21.629 161.655 21.79 160.857 21.79C160.073 21.79 159.387 21.65 158.799 21.37C158.225 21.076 157.749 20.684 157.371 20.194C156.993 19.69 156.706 19.109 156.51 18.451C156.328 17.793 156.237 17.086 156.237 16.33C156.237 15.504 156.349 14.755 156.573 14.083C156.797 13.397 157.119 12.816 157.539 12.34C157.959 11.85 158.463 11.472 159.051 11.206C159.653 10.94 160.325 10.807 161.067 10.807C161.669 10.807 162.264 10.933 162.852 11.185C163.454 11.423 164 11.871 164.49 12.529V11.143H166.296V20.236C166.296 21.174 166.226 22.014 166.086 22.756C165.96 23.512 165.715 24.149 165.351 24.667C165.001 25.199 164.511 25.605 163.881 25.885C163.251 26.165 162.439 26.305 161.445 26.305C160.017 26.305 158.897 26.046 158.085 25.528C157.273 25.024 156.797 24.184 156.657 23.008H158.463ZM164.511 16.162C164.511 15.448 164.427 14.853 164.259 14.377C164.091 13.887 163.86 13.488 163.566 13.18C163.272 12.872 162.929 12.655 162.537 12.529C162.159 12.389 161.76 12.319 161.34 12.319C160.892 12.319 160.472 12.396 160.08 12.55C159.702 12.69 159.366 12.921 159.072 13.243C158.792 13.565 158.568 13.978 158.4 14.482C158.246 14.986 158.169 15.595 158.169 16.309C158.169 17.037 158.253 17.653 158.421 18.157C158.603 18.661 158.834 19.067 159.114 19.375C159.394 19.683 159.716 19.907 160.08 20.047C160.458 20.187 160.836 20.257 161.214 20.257C161.69 20.257 162.124 20.18 162.516 20.026C162.922 19.872 163.272 19.641 163.566 19.333C163.86 19.025 164.091 18.64 164.259 18.178C164.427 17.702 164.511 17.149 164.511 16.519V16.162ZM169.146 11.143H170.973V22H169.146V11.143ZM169.083 7.00599H171.036V9.12699H169.083V7.00599ZM174.451 12.592H172.771V11.143H174.451V8.18199H176.278V11.143H179.155V12.592H176.278V18.955C176.278 19.487 176.397 19.914 176.635 20.236C176.873 20.558 177.237 20.719 177.727 20.719C178.035 20.719 178.301 20.698 178.525 20.656C178.763 20.614 178.98 20.558 179.176 20.488L179.491 21.895C179.211 21.993 178.903 22.07 178.567 22.126C178.245 22.196 177.86 22.231 177.412 22.231C176.796 22.231 176.299 22.14 175.921 21.958C175.543 21.776 175.242 21.517 175.018 21.181C174.794 20.845 174.64 20.446 174.556 19.984C174.486 19.522 174.451 19.018 174.451 18.472V12.592ZM187.863 20.509C187.471 20.985 186.974 21.398 186.372 21.748C185.77 22.084 185.021 22.252 184.125 22.252C183.579 22.252 183.075 22.182 182.613 22.042C182.165 21.916 181.773 21.72 181.437 21.454C181.115 21.174 180.863 20.831 180.681 20.425C180.499 20.019 180.408 19.543 180.408 18.997C180.408 18.255 180.562 17.653 180.87 17.191C181.192 16.729 181.612 16.365 182.13 16.099C182.662 15.833 183.257 15.644 183.915 15.532C184.573 15.42 185.252 15.35 185.952 15.322L187.821 15.259V14.839C187.821 13.915 187.625 13.25 187.233 12.844C186.841 12.438 186.204 12.235 185.322 12.235C184.454 12.235 183.817 12.382 183.411 12.676C183.005 12.956 182.739 13.348 182.613 13.852L180.954 13.663C181.15 12.669 181.619 11.948 182.361 11.5C183.103 11.038 184.111 10.807 185.385 10.807C186.169 10.807 186.827 10.905 187.359 11.101C187.905 11.283 188.346 11.549 188.682 11.899C189.018 12.249 189.256 12.683 189.396 13.201C189.55 13.719 189.627 14.3 189.627 14.944V22H187.863V20.509ZM187.821 16.561L186.078 16.624C185.336 16.652 184.72 16.722 184.23 16.834C183.74 16.946 183.348 17.1 183.054 17.296C182.774 17.478 182.571 17.709 182.445 17.989C182.333 18.269 182.277 18.591 182.277 18.955C182.277 19.501 182.438 19.942 182.76 20.278C183.096 20.6 183.642 20.761 184.398 20.761C185.476 20.761 186.316 20.495 186.918 19.963C187.52 19.431 187.821 18.703 187.821 17.779V16.561ZM192.443 7.00599H194.27V22H192.443V7.00599ZM206.456 7.00599H208.493L214.31 22H212.21L210.635 17.821H204.209L202.634 22H200.618L206.456 7.00599ZM210.047 16.141L207.401 9.18999L204.797 16.141H210.047ZM217.12 18.829C217.246 19.585 217.561 20.117 218.065 20.425C218.583 20.719 219.283 20.866 220.165 20.866C221.089 20.866 221.74 20.712 222.118 20.404C222.51 20.082 222.706 19.662 222.706 19.144C222.706 18.934 222.678 18.738 222.622 18.556C222.58 18.36 222.489 18.192 222.349 18.052C222.209 17.898 222.013 17.765 221.761 17.653C221.509 17.541 221.18 17.45 220.774 17.38L219.388 17.17C218.772 17.072 218.233 16.946 217.771 16.792C217.309 16.638 216.917 16.442 216.595 16.204C216.273 15.952 216.028 15.651 215.86 15.301C215.706 14.937 215.629 14.503 215.629 13.999C215.629 13.495 215.734 13.047 215.944 12.655C216.168 12.263 216.469 11.934 216.847 11.668C217.239 11.388 217.694 11.178 218.212 11.038C218.744 10.884 219.318 10.807 219.934 10.807C220.718 10.807 221.369 10.884 221.887 11.038C222.419 11.192 222.853 11.402 223.189 11.668C223.525 11.934 223.784 12.249 223.966 12.613C224.148 12.977 224.288 13.362 224.386 13.768L222.727 14.041C222.629 13.747 222.517 13.488 222.391 13.264C222.265 13.04 222.097 12.858 221.887 12.718C221.677 12.564 221.418 12.452 221.11 12.382C220.816 12.298 220.445 12.256 219.997 12.256C219.493 12.256 219.073 12.305 218.737 12.403C218.401 12.487 218.128 12.606 217.918 12.76C217.722 12.914 217.582 13.089 217.498 13.285C217.414 13.467 217.372 13.663 217.372 13.873C217.372 14.097 217.4 14.3 217.456 14.482C217.512 14.65 217.617 14.804 217.771 14.944C217.925 15.07 218.135 15.182 218.401 15.28C218.667 15.378 219.01 15.462 219.43 15.532L221.005 15.784C222.279 15.994 223.189 16.358 223.735 16.876C224.295 17.394 224.575 18.15 224.575 19.144C224.575 19.606 224.484 20.033 224.302 20.425C224.12 20.803 223.847 21.139 223.483 21.433C223.119 21.713 222.664 21.93 222.118 22.084C221.572 22.252 220.935 22.336 220.207 22.336C219.549 22.336 218.933 22.273 218.359 22.147C217.799 22.021 217.302 21.825 216.868 21.559C216.434 21.279 216.084 20.915 215.818 20.467C215.552 20.019 215.398 19.473 215.356 18.829H217.12ZM228.092 18.829C228.218 19.585 228.533 20.117 229.037 20.425C229.555 20.719 230.255 20.866 231.137 20.866C232.061 20.866 232.712 20.712 233.09 20.404C233.482 20.082 233.678 19.662 233.678 19.144C233.678 18.934 233.65 18.738 233.594 18.556C233.552 18.36 233.461 18.192 233.321 18.052C233.181 17.898 232.985 17.765 232.733 17.653C232.481 17.541 232.152 17.45 231.746 17.38L230.36 17.17C229.744 17.072 229.205 16.946 228.743 16.792C228.281 16.638 227.889 16.442 227.567 16.204C227.245 15.952 227 15.651 226.832 15.301C226.678 14.937 226.601 14.503 226.601 13.999C226.601 13.495 226.706 13.047 226.916 12.655C227.14 12.263 227.441 11.934 227.819 11.668C228.211 11.388 228.666 11.178 229.184 11.038C229.716 10.884 230.29 10.807 230.906 10.807C231.69 10.807 232.341 10.884 232.859 11.038C233.391 11.192 233.825 11.402 234.161 11.668C234.497 11.934 234.756 12.249 234.938 12.613C235.12 12.977 235.26 13.362 235.358 13.768L233.699 14.041C233.601 13.747 233.489 13.488 233.363 13.264C233.237 13.04 233.069 12.858 232.859 12.718C232.649 12.564 232.39 12.452 232.082 12.382C231.788 12.298 231.417 12.256 230.969 12.256C230.465 12.256 230.045 12.305 229.709 12.403C229.373 12.487 229.1 12.606 228.89 12.76C228.694 12.914 228.554 13.089 228.47 13.285C228.386 13.467 228.344 13.663 228.344 13.873C228.344 14.097 228.372 14.3 228.428 14.482C228.484 14.65 228.589 14.804 228.743 14.944C228.897 15.07 229.107 15.182 229.373 15.28C229.639 15.378 229.982 15.462 230.402 15.532L231.977 15.784C233.251 15.994 234.161 16.358 234.707 16.876C235.267 17.394 235.547 18.15 235.547 19.144C235.547 19.606 235.456 20.033 235.274 20.425C235.092 20.803 234.819 21.139 234.455 21.433C234.091 21.713 233.636 21.93 233.09 22.084C232.544 22.252 231.907 22.336 231.179 22.336C230.521 22.336 229.905 22.273 229.331 22.147C228.771 22.021 228.274 21.825 227.84 21.559C227.406 21.279 227.056 20.915 226.79 20.467C226.524 20.019 226.37 19.473 226.328 18.829H228.092ZM246.967 18.955C246.785 20.005 246.316 20.831 245.56 21.433C244.818 22.035 243.747 22.336 242.347 22.336C240.695 22.336 239.428 21.839 238.546 20.845C237.664 19.837 237.223 18.437 237.223 16.645C237.223 15.707 237.349 14.874 237.601 14.146C237.853 13.418 238.203 12.809 238.651 12.319C239.113 11.829 239.659 11.458 240.289 11.206C240.919 10.94 241.605 10.807 242.347 10.807C243.187 10.807 243.908 10.94 244.51 11.206C245.112 11.472 245.602 11.843 245.98 12.319C246.372 12.781 246.659 13.334 246.841 13.978C247.037 14.622 247.135 15.329 247.135 16.099V17.023H239.071C239.071 17.569 239.141 18.08 239.281 18.556C239.435 19.018 239.645 19.424 239.911 19.774C240.191 20.11 240.534 20.376 240.94 20.572C241.346 20.768 241.815 20.866 242.347 20.866C243.257 20.866 243.922 20.698 244.342 20.362C244.762 20.012 245.049 19.543 245.203 18.955H246.967ZM245.308 15.658C245.308 15.14 245.252 14.671 245.14 14.251C245.028 13.831 244.853 13.474 244.615 13.18C244.377 12.872 244.069 12.634 243.691 12.466C243.313 12.298 242.858 12.214 242.326 12.214C241.36 12.214 240.604 12.508 240.058 13.096C239.526 13.684 239.211 14.538 239.113 15.658H245.308ZM250.186 12.592H248.506V11.143H250.186V8.18199H252.013V11.143H254.89V12.592H252.013V18.955C252.013 19.487 252.132 19.914 252.37 20.236C252.608 20.558 252.972 20.719 253.462 20.719C253.77 20.719 254.036 20.698 254.26 20.656C254.498 20.614 254.715 20.558 254.911 20.488L255.226 21.895C254.946 21.993 254.638 22.07 254.302 22.126C253.98 22.196 253.595 22.231 253.147 22.231C252.531 22.231 252.034 22.14 251.656 21.958C251.278 21.776 250.977 21.517 250.753 21.181C250.529 20.845 250.375 20.446 250.291 19.984C250.221 19.522 250.186 19.018 250.186 18.472V12.592ZM261.764 7.00599H264.158L268.988 19.69L273.902 7.00599H276.212V22H274.427V10.177L269.723 22H268.148L263.528 10.219V22H261.764V7.00599ZM286.034 20.509C285.642 20.985 285.145 21.398 284.543 21.748C283.941 22.084 283.192 22.252 282.296 22.252C281.75 22.252 281.246 22.182 280.784 22.042C280.336 21.916 279.944 21.72 279.608 21.454C279.286 21.174 279.034 20.831 278.852 20.425C278.67 20.019 278.579 19.543 278.579 18.997C278.579 18.255 278.733 17.653 279.041 17.191C279.363 16.729 279.783 16.365 280.301 16.099C280.833 15.833 281.428 15.644 282.086 15.532C282.744 15.42 283.423 15.35 284.123 15.322L285.992 15.259V14.839C285.992 13.915 285.796 13.25 285.404 12.844C285.012 12.438 284.375 12.235 283.493 12.235C282.625 12.235 281.988 12.382 281.582 12.676C281.176 12.956 280.91 13.348 280.784 13.852L279.125 13.663C279.321 12.669 279.79 11.948 280.532 11.5C281.274 11.038 282.282 10.807 283.556 10.807C284.34 10.807 284.998 10.905 285.53 11.101C286.076 11.283 286.517 11.549 286.853 11.899C287.189 12.249 287.427 12.683 287.567 13.201C287.721 13.719 287.798 14.3 287.798 14.944V22H286.034V20.509ZM285.992 16.561L284.249 16.624C283.507 16.652 282.891 16.722 282.401 16.834C281.911 16.946 281.519 17.1 281.225 17.296C280.945 17.478 280.742 17.709 280.616 17.989C280.504 18.269 280.448 18.591 280.448 18.955C280.448 19.501 280.609 19.942 280.931 20.278C281.267 20.6 281.813 20.761 282.569 20.761C283.647 20.761 284.487 20.495 285.089 19.963C285.691 19.431 285.992 18.703 285.992 17.779V16.561ZM290.572 11.143H292.378V12.802C292.91 12.088 293.498 11.577 294.142 11.269C294.786 10.961 295.465 10.807 296.179 10.807C297.411 10.807 298.321 11.143 298.909 11.815C299.511 12.487 299.812 13.474 299.812 14.776V22H297.985V15.133C297.985 14.125 297.803 13.418 297.439 13.012C297.075 12.592 296.515 12.382 295.759 12.382C295.353 12.382 294.947 12.452 294.541 12.592C294.149 12.732 293.792 12.956 293.47 13.264C293.12 13.572 292.854 13.901 292.672 14.251C292.49 14.587 292.399 15.028 292.399 15.574V22H290.572V11.143ZM309.311 20.509C308.919 20.985 308.422 21.398 307.82 21.748C307.218 22.084 306.469 22.252 305.573 22.252C305.027 22.252 304.523 22.182 304.061 22.042C303.613 21.916 303.221 21.72 302.885 21.454C302.563 21.174 302.311 20.831 302.129 20.425C301.947 20.019 301.856 19.543 301.856 18.997C301.856 18.255 302.01 17.653 302.318 17.191C302.64 16.729 303.06 16.365 303.578 16.099C304.11 15.833 304.705 15.644 305.363 15.532C306.021 15.42 306.7 15.35 307.4 15.322L309.269 15.259V14.839C309.269 13.915 309.073 13.25 308.681 12.844C308.289 12.438 307.652 12.235 306.77 12.235C305.902 12.235 305.265 12.382 304.859 12.676C304.453 12.956 304.187 13.348 304.061 13.852L302.402 13.663C302.598 12.669 303.067 11.948 303.809 11.5C304.551 11.038 305.559 10.807 306.833 10.807C307.617 10.807 308.275 10.905 308.807 11.101C309.353 11.283 309.794 11.549 310.13 11.899C310.466 12.249 310.704 12.683 310.844 13.201C310.998 13.719 311.075 14.3 311.075 14.944V22H309.311V20.509ZM309.269 16.561L307.526 16.624C306.784 16.652 306.168 16.722 305.678 16.834C305.188 16.946 304.796 17.1 304.502 17.296C304.222 17.478 304.019 17.709 303.893 17.989C303.781 18.269 303.725 18.591 303.725 18.955C303.725 19.501 303.886 19.942 304.208 20.278C304.544 20.6 305.09 20.761 305.846 20.761C306.924 20.761 307.764 20.495 308.366 19.963C308.968 19.431 309.269 18.703 309.269 17.779V16.561ZM315.696 23.008C315.85 23.666 316.144 24.135 316.578 24.415C317.026 24.695 317.719 24.835 318.657 24.835C319.805 24.835 320.596 24.513 321.03 23.869C321.478 23.239 321.702 22.315 321.702 21.097V19.942C321.282 20.53 320.771 20.985 320.169 21.307C319.581 21.629 318.888 21.79 318.09 21.79C317.306 21.79 316.62 21.65 316.032 21.37C315.458 21.076 314.982 20.684 314.604 20.194C314.226 19.69 313.939 19.109 313.743 18.451C313.561 17.793 313.47 17.086 313.47 16.33C313.47 15.504 313.582 14.755 313.806 14.083C314.03 13.397 314.352 12.816 314.772 12.34C315.192 11.85 315.696 11.472 316.284 11.206C316.886 10.94 317.558 10.807 318.3 10.807C318.902 10.807 319.497 10.933 320.085 11.185C320.687 11.423 321.233 11.871 321.723 12.529V11.143H323.529V20.236C323.529 21.174 323.459 22.014 323.319 22.756C323.193 23.512 322.948 24.149 322.584 24.667C322.234 25.199 321.744 25.605 321.114 25.885C320.484 26.165 319.672 26.305 318.678 26.305C317.25 26.305 316.13 26.046 315.318 25.528C314.506 25.024 314.03 24.184 313.89 23.008H315.696ZM321.744 16.162C321.744 15.448 321.66 14.853 321.492 14.377C321.324 13.887 321.093 13.488 320.799 13.18C320.505 12.872 320.162 12.655 319.77 12.529C319.392 12.389 318.993 12.319 318.573 12.319C318.125 12.319 317.705 12.396 317.313 12.55C316.935 12.69 316.599 12.921 316.305 13.243C316.025 13.565 315.801 13.978 315.633 14.482C315.479 14.986 315.402 15.595 315.402 16.309C315.402 17.037 315.486 17.653 315.654 18.157C315.836 18.661 316.067 19.067 316.347 19.375C316.627 19.683 316.949 19.907 317.313 20.047C317.691 20.187 318.069 20.257 318.447 20.257C318.923 20.257 319.357 20.18 319.749 20.026C320.155 19.872 320.505 19.641 320.799 19.333C321.093 19.025 321.324 18.64 321.492 18.178C321.66 17.702 321.744 17.149 321.744 16.519V16.162ZM335.725 18.955C335.543 20.005 335.074 20.831 334.318 21.433C333.576 22.035 332.505 22.336 331.105 22.336C329.453 22.336 328.186 21.839 327.304 20.845C326.422 19.837 325.981 18.437 325.981 16.645C325.981 15.707 326.107 14.874 326.359 14.146C326.611 13.418 326.961 12.809 327.409 12.319C327.871 11.829 328.417 11.458 329.047 11.206C329.677 10.94 330.363 10.807 331.105 10.807C331.945 10.807 332.666 10.94 333.268 11.206C333.87 11.472 334.36 11.843 334.738 12.319C335.13 12.781 335.417 13.334 335.599 13.978C335.795 14.622 335.893 15.329 335.893 16.099V17.023H327.829C327.829 17.569 327.899 18.08 328.039 18.556C328.193 19.018 328.403 19.424 328.669 19.774C328.949 20.11 329.292 20.376 329.698 20.572C330.104 20.768 330.573 20.866 331.105 20.866C332.015 20.866 332.68 20.698 333.1 20.362C333.52 20.012 333.807 19.543 333.961 18.955H335.725ZM334.066 15.658C334.066 15.14 334.01 14.671 333.898 14.251C333.786 13.831 333.611 13.474 333.373 13.18C333.135 12.872 332.827 12.634 332.449 12.466C332.071 12.298 331.616 12.214 331.084 12.214C330.118 12.214 329.362 12.508 328.816 13.096C328.284 13.684 327.969 14.538 327.871 15.658H334.066ZM338.314 11.143H340.12V12.802C340.61 12.13 341.149 11.633 341.737 11.311C342.325 10.975 342.927 10.807 343.543 10.807C344.355 10.807 345.006 10.982 345.496 11.332C346 11.682 346.371 12.186 346.609 12.844C347.099 12.172 347.659 11.668 348.289 11.332C348.919 10.982 349.591 10.807 350.305 10.807C351.369 10.807 352.188 11.101 352.762 11.689C353.35 12.263 353.644 13.194 353.644 14.482V22H351.817V14.902C351.817 14.412 351.775 14.006 351.691 13.684C351.607 13.348 351.481 13.089 351.313 12.907C351.159 12.711 350.963 12.578 350.725 12.508C350.487 12.424 350.214 12.382 349.906 12.382C349.584 12.382 349.248 12.438 348.898 12.55C348.548 12.662 348.205 12.858 347.869 13.138C347.589 13.376 347.358 13.663 347.176 13.999C346.994 14.335 346.903 14.72 346.903 15.154V22H345.076V14.923C345.076 13.971 344.908 13.313 344.572 12.949C344.25 12.571 343.781 12.382 343.165 12.382C342.451 12.382 341.779 12.676 341.149 13.264C340.911 13.488 340.68 13.775 340.456 14.125C340.246 14.475 340.141 14.944 340.141 15.532V22H338.314V11.143ZM365.789 18.955C365.607 20.005 365.138 20.831 364.382 21.433C363.64 22.035 362.569 22.336 361.169 22.336C359.517 22.336 358.25 21.839 357.368 20.845C356.486 19.837 356.045 18.437 356.045 16.645C356.045 15.707 356.171 14.874 356.423 14.146C356.675 13.418 357.025 12.809 357.473 12.319C357.935 11.829 358.481 11.458 359.111 11.206C359.741 10.94 360.427 10.807 361.169 10.807C362.009 10.807 362.73 10.94 363.332 11.206C363.934 11.472 364.424 11.843 364.802 12.319C365.194 12.781 365.481 13.334 365.663 13.978C365.859 14.622 365.957 15.329 365.957 16.099V17.023H357.893C357.893 17.569 357.963 18.08 358.103 18.556C358.257 19.018 358.467 19.424 358.733 19.774C359.013 20.11 359.356 20.376 359.762 20.572C360.168 20.768 360.637 20.866 361.169 20.866C362.079 20.866 362.744 20.698 363.164 20.362C363.584 20.012 363.871 19.543 364.025 18.955H365.789ZM364.13 15.658C364.13 15.14 364.074 14.671 363.962 14.251C363.85 13.831 363.675 13.474 363.437 13.18C363.199 12.872 362.891 12.634 362.513 12.466C362.135 12.298 361.68 12.214 361.148 12.214C360.182 12.214 359.426 12.508 358.88 13.096C358.348 13.684 358.033 14.538 357.935 15.658H364.13ZM368.379 11.143H370.185V12.802C370.717 12.088 371.305 11.577 371.949 11.269C372.593 10.961 373.272 10.807 373.986 10.807C375.218 10.807 376.128 11.143 376.716 11.815C377.318 12.487 377.619 13.474 377.619 14.776V22H375.792V15.133C375.792 14.125 375.61 13.418 375.246 13.012C374.882 12.592 374.322 12.382 373.566 12.382C373.16 12.382 372.754 12.452 372.348 12.592C371.956 12.732 371.599 12.956 371.277 13.264C370.927 13.572 370.661 13.901 370.479 14.251C370.297 14.587 370.206 15.028 370.206 15.574V22H368.379V11.143ZM380.985 12.592H379.305V11.143H380.985V8.18199H382.812V11.143H385.689V12.592H382.812V18.955C382.812 19.487 382.931 19.914 383.169 20.236C383.407 20.558 383.771 20.719 384.261 20.719C384.569 20.719 384.835 20.698 385.059 20.656C385.297 20.614 385.514 20.558 385.71 20.488L386.025 21.895C385.745 21.993 385.437 22.07 385.101 22.126C384.779 22.196 384.394 22.231 383.946 22.231C383.33 22.231 382.833 22.14 382.455 21.958C382.077 21.776 381.776 21.517 381.552 21.181C381.328 20.845 381.174 20.446 381.09 19.984C381.02 19.522 380.985 19.018 380.985 18.472V12.592ZM392.962 12.592H391.261V11.143H392.962V10.198C392.962 9.60999 393.046 9.10599 393.214 8.68599C393.396 8.26599 393.634 7.92299 393.928 7.65699C394.236 7.37699 394.586 7.17399 394.978 7.04799C395.384 6.90799 395.811 6.83799 396.259 6.83799C396.581 6.83799 396.889 6.85899 397.183 6.90099C397.477 6.92899 397.785 6.99199 398.107 7.08999L397.813 8.51799C397.589 8.44799 397.372 8.40599 397.162 8.39199C396.966 8.36399 396.77 8.34999 396.574 8.34999C396.084 8.34999 395.664 8.48299 395.314 8.74899C394.964 9.00099 394.789 9.46999 394.789 10.156V11.143H397.54V12.592H394.789V22H392.962V12.592ZM403.787 22.336C402.961 22.336 402.226 22.203 401.582 21.937C400.938 21.671 400.392 21.293 399.944 20.803C399.496 20.313 399.153 19.711 398.915 18.997C398.677 18.283 398.558 17.485 398.558 16.603C398.558 15.721 398.684 14.923 398.936 14.209C399.188 13.495 399.545 12.886 400.007 12.382C400.469 11.878 401.022 11.493 401.666 11.227C402.324 10.947 403.052 10.807 403.85 10.807C404.662 10.807 405.39 10.94 406.034 11.206C406.678 11.472 407.224 11.857 407.672 12.361C408.134 12.851 408.484 13.446 408.722 14.146C408.96 14.846 409.079 15.637 409.079 16.519C409.079 17.415 408.953 18.22 408.701 18.934C408.463 19.648 408.113 20.257 407.651 20.761C407.203 21.265 406.65 21.657 405.992 21.937C405.334 22.203 404.599 22.336 403.787 22.336ZM403.808 20.824C404.396 20.824 404.9 20.719 405.32 20.509C405.74 20.299 406.083 20.005 406.349 19.627C406.629 19.249 406.832 18.801 406.958 18.283C407.084 17.751 407.147 17.17 407.147 16.54C407.147 15.924 407.084 15.357 406.958 14.839C406.832 14.321 406.629 13.88 406.349 13.516C406.083 13.138 405.74 12.844 405.32 12.634C404.9 12.424 404.396 12.319 403.808 12.319C403.22 12.319 402.716 12.424 402.296 12.634C401.89 12.844 401.547 13.138 401.267 13.516C401.001 13.88 400.805 14.321 400.679 14.839C400.553 15.357 400.49 15.931 400.49 16.561C400.49 17.191 400.553 17.765 400.679 18.283C400.805 18.801 401.001 19.249 401.267 19.627C401.533 20.005 401.876 20.299 402.296 20.509C402.716 20.719 403.22 20.824 403.808 20.824ZM411.527 11.143H413.333V12.823C413.739 12.221 414.215 11.759 414.761 11.437C415.307 11.115 415.888 10.954 416.504 10.954C416.882 10.954 417.204 10.982 417.47 11.038L417.239 12.739C417.099 12.711 416.959 12.69 416.819 12.676C416.679 12.648 416.525 12.634 416.357 12.634C416.021 12.634 415.678 12.697 415.328 12.823C414.978 12.935 414.649 13.131 414.341 13.411C414.033 13.677 413.788 13.985 413.606 14.335C413.438 14.685 413.354 15.091 413.354 15.553V22H411.527V11.143ZM425.237 17.737C425.405 18.787 425.818 19.55 426.476 20.026C427.148 20.488 428.142 20.719 429.458 20.719C430.116 20.719 430.662 20.649 431.096 20.509C431.544 20.355 431.901 20.159 432.167 19.921C432.433 19.669 432.622 19.382 432.734 19.06C432.846 18.724 432.902 18.374 432.902 18.01C432.902 17.716 432.867 17.436 432.797 17.17C432.727 16.89 432.587 16.638 432.377 16.414C432.181 16.19 431.901 15.994 431.537 15.826C431.187 15.658 430.732 15.525 430.172 15.427L428.282 15.091C427.54 14.965 426.882 14.797 426.308 14.587C425.734 14.377 425.244 14.111 424.838 13.789C424.446 13.453 424.145 13.04 423.935 12.55C423.739 12.06 423.641 11.465 423.641 10.765C423.641 10.079 423.781 9.47699 424.061 8.95899C424.355 8.44099 424.747 8.00699 425.237 7.65699C425.727 7.30699 426.308 7.04799 426.98 6.87999C427.652 6.71199 428.38 6.62799 429.164 6.62799C430.158 6.62799 430.984 6.73999 431.642 6.96399C432.314 7.17399 432.86 7.46099 433.28 7.82499C433.7 8.18899 434.015 8.60899 434.225 9.08499C434.449 9.54699 434.617 10.023 434.729 10.513L432.923 10.87C432.811 10.45 432.664 10.079 432.482 9.75699C432.314 9.42099 432.083 9.14799 431.789 8.93799C431.509 8.71399 431.159 8.54599 430.739 8.43399C430.319 8.32199 429.808 8.26599 429.206 8.26599C428.52 8.26599 427.946 8.32899 427.484 8.45499C427.022 8.58099 426.651 8.75599 426.371 8.97999C426.091 9.18999 425.888 9.44899 425.762 9.75699C425.65 10.051 425.594 10.366 425.594 10.702C425.594 11.066 425.636 11.388 425.72 11.668C425.818 11.934 425.972 12.172 426.182 12.382C426.406 12.578 426.693 12.746 427.043 12.886C427.393 13.012 427.827 13.124 428.345 13.222L430.445 13.6C431.999 13.894 433.14 14.384 433.868 15.07C434.596 15.742 434.96 16.736 434.96 18.052C434.96 18.654 434.841 19.221 434.603 19.753C434.379 20.271 434.036 20.726 433.574 21.118C433.126 21.51 432.559 21.818 431.873 22.042C431.187 22.266 430.382 22.378 429.458 22.378C428.576 22.378 427.771 22.287 427.043 22.105C426.329 21.937 425.706 21.664 425.174 21.286C424.642 20.908 424.215 20.425 423.893 19.837C423.571 19.249 423.375 18.549 423.305 17.737H425.237ZM441.639 7.00599H443.676L449.493 22H447.393L445.818 17.821H439.392L437.817 22H435.801L441.639 7.00599ZM445.23 16.141L442.584 9.18999L439.98 16.141H445.23ZM451.38 7.00599H456.399C457.505 7.00599 458.415 7.12499 459.129 7.36299C459.857 7.60099 460.424 7.92299 460.83 8.32899C461.25 8.73499 461.537 9.21099 461.691 9.75699C461.859 10.289 461.943 10.856 461.943 11.458C461.943 12.088 461.859 12.69 461.691 13.264C461.523 13.838 461.229 14.342 460.809 14.776C460.389 15.21 459.822 15.553 459.108 15.805C458.394 16.057 457.491 16.183 456.399 16.183H453.291V22H451.38V7.00599ZM456.378 14.545C457.106 14.545 457.708 14.475 458.184 14.335C458.66 14.195 459.031 13.992 459.297 13.726C459.563 13.46 459.745 13.145 459.843 12.781C459.955 12.403 460.011 11.983 460.011 11.521C460.011 11.045 459.955 10.625 459.843 10.261C459.731 9.89699 459.535 9.59599 459.255 9.35799C458.975 9.11999 458.597 8.94499 458.121 8.83299C457.659 8.70699 457.071 8.64399 456.357 8.64399H453.291V14.545H456.378Z" fill="white"/>
<path d="M128.5 2.89999H127.5V25.9H128.5V2.89999Z" fill="white"/>
<path d="M16.5999 14.5C16.5999 18.3 14.3999 22.4 8.59991 22.4C4.39991 22.4 0.599913 20.1 0.599913 14.5C0.499917 9.9 3.39991 6.4 9.09991 6.7C15.1999 7 16.5999 11.7 16.5999 14.5ZM5.69991 11.6C5.19991 12.4 4.99991 13.4 4.99991 14.4C4.99991 16.7 6.09991 18.8 8.59991 18.8C10.9999 18.8 12.1999 16.9 12.1999 14.6C12.1999 13 11.7999 11.7 10.9999 10.9C10.0999 10.1 9.09991 10 8.39991 10.1C6.99991 10.2 6.29991 10.7 5.69991 11.6Z" fill="white"/>
<path d="M55.5999 8.40001C55.9999 7.90001 56.2999 7.60001 57.0999 7.20001C57.7999 6.90001 58.7999 6.70001 59.7999 6.70001C60.6999 6.70001 61.7 6.80001 62.5 7.30001C64.1 8.10001 64.5 9.50001 64.5 11.8V22H60.0999V13.6C60.0999 12.3 60.1 11.8 59.9 11.4C59.6 10.6 58.8 10.3 57.9 10.3C55.6 10.3 55.5999 12.2 55.5999 14V22.1H51.2V7.00001H55.5999V8.40001Z" fill="white"/>
<path d="M49.1001 18.1C48.7001 19 47.4001 22.3 41.7001 22.3C37.3001 22.3 34.1001 19.6 34.1001 14.7C34.1001 11.1 35.9001 6.6 41.8001 6.6C42.7001 6.6 45.3001 6.5 47.2001 8.6C49.1001 10.7 49.3001 13.6 49.3001 15.3H38.6001C38.6001 17.2 39.6001 19 42.0001 19C44.4001 19 45.2001 17.4 45.8001 16.4L49.1001 18.1ZM44.7001 12.6C44.6001 12 44.5001 11.1 43.9001 10.5C43.4001 9.9 42.5001 9.6 41.8001 9.6C40.7001 9.6 40.0001 10.1 39.6001 10.6C39.0001 11.3 38.9001 11.9 38.7001 12.6H44.7001Z" fill="white"/>
<path d="M110.4 10.1H113.3V6.99999H110.5V3.89999H106.1V6.99999H105.4L103.4 10.1H106.1V17.2C106.1 18.6 106.1 19.7 106.7 20.6C107.6 22 109.3 22.1 110.8 22.1C111.6 22.1 112.2 22 113.1 21.9V18.5L111.5 18.6C110.3 18.6 110.3 17.8 110.4 16.9V10.1Z" fill="white"/>
<path d="M66.7 3.89999H71.1V6.99999H75.7L73.7 10.1H71.1V16.7C71.1 17.6 71.1 18.4 72.2 18.4L73.8 18.3V21.7C72.9 21.8 72.3 21.9 71.5 21.9C70 21.9 68.3 21.8 67.4 20.4C66.8 19.5 66.8 18.5 66.8 17V3.89999H66.7Z" fill="white"/>
<path d="M117.4 10.1H116.9V7.5H115.9V7H118.4V7.5H117.4V10.1ZM121.7 10.1H121.2V8.2V7.6L121.1 8.1L120.5 10.1H120L119.4 8.1L119.2 7.6V8.2V10.1H118.7V7H119.4L120.2 9.4L121 7H121.7V10.1Z" fill="white"/>
<path d="M89.4 18.1L88.6 19.4C87.8 20.6 86.3 22.3 82.1 22.3C77.7 22.3 74.7 19.6 74.7 14.7C74.7 11.1 76.5 6.6 82.4 6.6C83.3 6.6 85.9 6.5 87.8 8.6C89.7 10.7 89.9 13.6 89.9 15.3H79.2C79.2 17.2 80.1 19 82.5 19C84.9 19 85.6 17.4 86.1 16.4L89.4 18.1ZM85.3 12.6C85.2 12 85.1 11.1 84.5 10.5C84 10 83.1 9.7 82.4 9.7C81.3 9.7 80.6 10.2 80.2 10.7C79.6 11.4 79.5 12 79.3 12.7H85.3V12.6Z" fill="white"/>
<path d="M104.4 22L98.9999 14.1L103.5 7H98.4999L96.3999 10.4L93.9999 7H88.9999L93.8999 14.1L88.8999 22H93.8999L96.4999 17.8L99.3999 22H104.4Z" fill="white"/>
<path d="M22.6001 8.40001C23.0001 7.80001 24.4001 6.70001 26.5001 6.70001C30.2001 6.70001 32.7001 9.50001 32.7001 14.5C32.7001 17.6 31.6001 22.4 26.3001 22.4C24.4001 22.4 22.9001 21.3 22.5001 20.7V26.9H18.1001V7.00001H22.5001V8.40001H22.6001ZM25.6001 10.1C24.8001 10.1 24.0001 10.4 23.3001 11.2C22.7001 12 22.4001 13.2 22.4001 14.5C22.4001 16.3 22.9001 17.3 23.5001 17.9C24.0001 18.5 24.8001 18.8 25.5001 18.8C27.6001 18.8 28.6001 16.5 28.6001 14.4C28.6001 12.6 28.1001 10.6 26.3001 10.2C26.0001 10.1 25.8001 10.1 25.6001 10.1Z" fill="white"/>
<path d="M468.751 17.737C468.919 18.787 469.332 19.55 469.99 20.026C470.662 20.488 471.656 20.719 472.972 20.719C473.63 20.719 474.176 20.649 474.61 20.509C475.058 20.355 475.415 20.159 475.681 19.921C475.947 19.669 476.136 19.382 476.248 19.06C476.36 18.724 476.416 18.374 476.416 18.01C476.416 17.716 476.381 17.436 476.311 17.17C476.241 16.89 476.101 16.638 475.891 16.414C475.695 16.19 475.415 15.994 475.051 15.826C474.701 15.658 474.246 15.525 473.686 15.427L471.796 15.091C471.054 14.965 470.396 14.797 469.822 14.587C469.248 14.377 468.758 14.111 468.352 13.789C467.96 13.453 467.659 13.04 467.449 12.55C467.253 12.06 467.155 11.465 467.155 10.765C467.155 10.079 467.295 9.477 467.575 8.959C467.869 8.441 468.261 8.007 468.751 7.657C469.241 7.307 469.822 7.048 470.494 6.88C471.166 6.712 471.894 6.628 472.678 6.628C473.672 6.628 474.498 6.74 475.156 6.964C475.828 7.174 476.374 7.461 476.794 7.825C477.214 8.189 477.529 8.609 477.739 9.085C477.963 9.547 478.131 10.023 478.243 10.513L476.437 10.87C476.325 10.45 476.178 10.079 475.996 9.757C475.828 9.421 475.597 9.148 475.303 8.938C475.023 8.714 474.673 8.546 474.253 8.434C473.833 8.322 473.322 8.266 472.72 8.266C472.034 8.266 471.46 8.329 470.998 8.455C470.536 8.581 470.165 8.756 469.885 8.98C469.605 9.19 469.402 9.449 469.276 9.757C469.164 10.051 469.108 10.366 469.108 10.702C469.108 11.066 469.15 11.388 469.234 11.668C469.332 11.934 469.486 12.172 469.696 12.382C469.92 12.578 470.207 12.746 470.557 12.886C470.907 13.012 471.341 13.124 471.859 13.222L473.959 13.6C475.513 13.894 476.654 14.384 477.382 15.07C478.11 15.742 478.474 16.736 478.474 18.052C478.474 18.654 478.355 19.221 478.117 19.753C477.893 20.271 477.55 20.726 477.088 21.118C476.64 21.51 476.073 21.818 475.387 22.042C474.701 22.266 473.896 22.378 472.972 22.378C472.09 22.378 471.285 22.287 470.557 22.105C469.843 21.937 469.22 21.664 468.688 21.286C468.156 20.908 467.729 20.425 467.407 19.837C467.085 19.249 466.889 18.549 466.819 17.737H468.751ZM485.143 22.336C484.317 22.336 483.582 22.203 482.938 21.937C482.294 21.671 481.748 21.293 481.3 20.803C480.852 20.313 480.509 19.711 480.271 18.997C480.033 18.283 479.914 17.485 479.914 16.603C479.914 15.721 480.04 14.923 480.292 14.209C480.544 13.495 480.901 12.886 481.363 12.382C481.825 11.878 482.378 11.493 483.022 11.227C483.68 10.947 484.408 10.807 485.206 10.807C486.018 10.807 486.746 10.94 487.39 11.206C488.034 11.472 488.58 11.857 489.028 12.361C489.49 12.851 489.84 13.446 490.078 14.146C490.316 14.846 490.435 15.637 490.435 16.519C490.435 17.415 490.309 18.22 490.057 18.934C489.819 19.648 489.469 20.257 489.007 20.761C488.559 21.265 488.006 21.657 487.348 21.937C486.69 22.203 485.955 22.336 485.143 22.336ZM485.164 20.824C485.752 20.824 486.256 20.719 486.676 20.509C487.096 20.299 487.439 20.005 487.705 19.627C487.985 19.249 488.188 18.801 488.314 18.283C488.44 17.751 488.503 17.17 488.503 16.54C488.503 15.924 488.44 15.357 488.314 14.839C488.188 14.321 487.985 13.88 487.705 13.516C487.439 13.138 487.096 12.844 486.676 12.634C486.256 12.424 485.752 12.319 485.164 12.319C484.576 12.319 484.072 12.424 483.652 12.634C483.246 12.844 482.903 13.138 482.623 13.516C482.357 13.88 482.161 14.321 482.035 14.839C481.909 15.357 481.846 15.931 481.846 16.561C481.846 17.191 481.909 17.765 482.035 18.283C482.161 18.801 482.357 19.249 482.623 19.627C482.889 20.005 483.232 20.299 483.652 20.509C484.072 20.719 484.576 20.824 485.164 20.824ZM492.295 7.006H494.122V22H492.295V7.006ZM496.277 11.143H498.104V17.989C498.104 18.997 498.265 19.711 498.587 20.131C498.923 20.551 499.462 20.761 500.204 20.761C501.016 20.761 501.751 20.467 502.409 19.879C502.759 19.571 503.025 19.249 503.207 18.913C503.389 18.563 503.48 18.115 503.48 17.569V11.143H505.307V22H503.501V20.32C502.969 21.02 502.395 21.531 501.779 21.853C501.163 22.175 500.498 22.336 499.784 22.336C498.552 22.336 497.656 22.007 497.096 21.349C496.55 20.677 496.277 19.676 496.277 18.346V11.143ZM508.112 12.592H506.432V11.143H508.112V8.182H509.939V11.143H512.816V12.592H509.939V18.955C509.939 19.487 510.058 19.914 510.296 20.236C510.534 20.558 510.898 20.719 511.388 20.719C511.696 20.719 511.962 20.698 512.186 20.656C512.424 20.614 512.641 20.558 512.837 20.488L513.152 21.895C512.872 21.993 512.564 22.07 512.228 22.126C511.906 22.196 511.521 22.231 511.073 22.231C510.457 22.231 509.96 22.14 509.582 21.958C509.204 21.776 508.903 21.517 508.679 21.181C508.455 20.845 508.301 20.446 508.217 19.984C508.147 19.522 508.112 19.018 508.112 18.472V12.592ZM514.174 11.143H516.001V22H514.174V11.143ZM514.111 7.006H516.064V9.127H514.111V7.006ZM523.091 22.336C522.265 22.336 521.53 22.203 520.886 21.937C520.242 21.671 519.696 21.293 519.248 20.803C518.8 20.313 518.457 19.711 518.219 18.997C517.981 18.283 517.862 17.485 517.862 16.603C517.862 15.721 517.988 14.923 518.24 14.209C518.492 13.495 518.849 12.886 519.311 12.382C519.773 11.878 520.326 11.493 520.97 11.227C521.628 10.947 522.356 10.807 523.154 10.807C523.966 10.807 524.694 10.94 525.338 11.206C525.982 11.472 526.528 11.857 526.976 12.361C527.438 12.851 527.788 13.446 528.026 14.146C528.264 14.846 528.383 15.637 528.383 16.519C528.383 17.415 528.257 18.22 528.005 18.934C527.767 19.648 527.417 20.257 526.955 20.761C526.507 21.265 525.954 21.657 525.296 21.937C524.638 22.203 523.903 22.336 523.091 22.336ZM523.112 20.824C523.7 20.824 524.204 20.719 524.624 20.509C525.044 20.299 525.387 20.005 525.653 19.627C525.933 19.249 526.136 18.801 526.262 18.283C526.388 17.751 526.451 17.17 526.451 16.54C526.451 15.924 526.388 15.357 526.262 14.839C526.136 14.321 525.933 13.88 525.653 13.516C525.387 13.138 525.044 12.844 524.624 12.634C524.204 12.424 523.7 12.319 523.112 12.319C522.524 12.319 522.02 12.424 521.6 12.634C521.194 12.844 520.851 13.138 520.571 13.516C520.305 13.88 520.109 14.321 519.983 14.839C519.857 15.357 519.794 15.931 519.794 16.561C519.794 17.191 519.857 17.765 519.983 18.283C520.109 18.801 520.305 19.249 520.571 19.627C520.837 20.005 521.18 20.299 521.6 20.509C522.02 20.719 522.524 20.824 523.112 20.824ZM530.201 11.143H532.007V12.802C532.539 12.088 533.127 11.577 533.771 11.269C534.415 10.961 535.094 10.807 535.808 10.807C537.04 10.807 537.95 11.143 538.538 11.815C539.14 12.487 539.441 13.474 539.441 14.776V22H537.614V15.133C537.614 14.125 537.432 13.418 537.068 13.012C536.704 12.592 536.144 12.382 535.388 12.382C534.982 12.382 534.576 12.452 534.17 12.592C533.778 12.732 533.421 12.956 533.099 13.264C532.749 13.572 532.483 13.901 532.301 14.251C532.119 14.587 532.028 15.028 532.028 15.574V22H530.201V11.143ZM542.724 18.829C542.85 19.585 543.165 20.117 543.669 20.425C544.187 20.719 544.887 20.866 545.769 20.866C546.693 20.866 547.344 20.712 547.722 20.404C548.114 20.082 548.31 19.662 548.31 19.144C548.31 18.934 548.282 18.738 548.226 18.556C548.184 18.36 548.093 18.192 547.953 18.052C547.813 17.898 547.617 17.765 547.365 17.653C547.113 17.541 546.784 17.45 546.378 17.38L544.992 17.17C544.376 17.072 543.837 16.946 543.375 16.792C542.913 16.638 542.521 16.442 542.199 16.204C541.877 15.952 541.632 15.651 541.464 15.301C541.31 14.937 541.233 14.503 541.233 13.999C541.233 13.495 541.338 13.047 541.548 12.655C541.772 12.263 542.073 11.934 542.451 11.668C542.843 11.388 543.298 11.178 543.816 11.038C544.348 10.884 544.922 10.807 545.538 10.807C546.322 10.807 546.973 10.884 547.491 11.038C548.023 11.192 548.457 11.402 548.793 11.668C549.129 11.934 549.388 12.249 549.57 12.613C549.752 12.977 549.892 13.362 549.99 13.768L548.331 14.041C548.233 13.747 548.121 13.488 547.995 13.264C547.869 13.04 547.701 12.858 547.491 12.718C547.281 12.564 547.022 12.452 546.714 12.382C546.42 12.298 546.049 12.256 545.601 12.256C545.097 12.256 544.677 12.305 544.341 12.403C544.005 12.487 543.732 12.606 543.522 12.76C543.326 12.914 543.186 13.089 543.102 13.285C543.018 13.467 542.976 13.663 542.976 13.873C542.976 14.097 543.004 14.3 543.06 14.482C543.116 14.65 543.221 14.804 543.375 14.944C543.529 15.07 543.739 15.182 544.005 15.28C544.271 15.378 544.614 15.462 545.034 15.532L546.609 15.784C547.883 15.994 548.793 16.358 549.339 16.876C549.899 17.394 550.179 18.15 550.179 19.144C550.179 19.606 550.088 20.033 549.906 20.425C549.724 20.803 549.451 21.139 549.087 21.433C548.723 21.713 548.268 21.93 547.722 22.084C547.176 22.252 546.539 22.336 545.811 22.336C545.153 22.336 544.537 22.273 543.963 22.147C543.403 22.021 542.906 21.825 542.472 21.559C542.038 21.279 541.688 20.915 541.422 20.467C541.156 20.019 541.002 19.473 540.96 18.829H542.724Z" fill="white" fill-opacity="1"/>
</svg>
