<svg id="Layer_1" data-name="Layer 1" xmlns="http://www.w3.org/2000/svg" viewBox="0 0 69.39 13.01">
    <defs>
        <style>.cls-1{fill:#fff;}</style>
    </defs>
    <title>OT_logo_w_separator_only</title>
    <path class="cls-1" d="M9.84,7.39A4,4,0,0,1,5.5,11.66c-2.28,0-4.36-1.27-4.36-4.27C1.14,4.91,2.7,3,5.81,3.17A4,4,0,0,1,9.84,7.39ZM4,5.83a2.74,2.74,0,0,0-.41,1.55c0,1.25.62,2.39,2,2.39s1.92-1,1.92-2.29a2.66,2.66,0,0,0-.66-2,1.79,1.79,0,0,0-1.4-.44A1.61,1.61,0,0,0,4,5.83Z" transform="translate(-1.14 -1.36)"/>
    <path class="cls-1" d="M31,4.25a2.53,2.53,0,0,1,.82-.64,3.88,3.88,0,0,1,1.5-.28,3.09,3.09,0,0,1,1.47.31c.87.45,1.09,1.18,1.09,2.45v5.57h-2V6.89a6,6,0,0,0-.06-1c-.19-.67-.71-.85-1.47-.85C31,5.06,31,6.54,31,7.08v4.58H28.79V3.53H31Z" transform="translate(-1.14 -1.36)"/>
    <path class="cls-1" d="M27.49,9.37c-.21.46-.92,2.3-4,2.3a3.82,3.82,0,0,1-4.1-4.13c0-2,1-4.36,4.16-4.36a3.73,3.73,0,0,1,2.92,1.05,5.53,5.53,0,0,1,1.15,3.64H21.8a1.81,1.81,0,0,0,1.62,2,.81.81,0,0,0,.22,0,2.14,2.14,0,0,0,2.05-1.42ZM25.12,6.24a1.94,1.94,0,0,0-.45-1.15,1.75,1.75,0,0,0-1.17-.45,1.63,1.63,0,0,0-1.21.53,2.09,2.09,0,0,0-.48,1.07Z" transform="translate(-1.14 -1.36)"/>
    <path class="cls-1" d="M60.77,5.16H62.4V3.53H60.77V1.9H58.6V3.53h-.37L57.15,5.16H58.6V8.88a3,3,0,0,0,.34,1.77,2.49,2.49,0,0,0,2.21.77,8.67,8.67,0,0,0,1.25-.12V9.53l-1,0c-.63,0-.63-.42-.58-.91Z" transform="translate(-1.14 -1.36)"/>
    <path class="cls-1" d="M36.92,1.9h2.71V3.53h2.23L40.78,5.16H39.09V8.65c0,.62.18,1,.91.92l.71,0v2.1a7.35,7.35,0,0,1-1.24.13A2.43,2.43,0,0,1,37.26,11a3.61,3.61,0,0,1-.34-1.84Z" transform="translate(-1.14 -1.36)"/>
    <path class="cls-1" d="M49.35,9.38l-.46.7c-.42.63-1.23,1.59-3.52,1.59a3.76,3.76,0,0,1-4-4.13c0-2,1-4.36,4.16-4.36a3.7,3.7,0,0,1,2.91,1.05,5.42,5.42,0,0,1,1.15,3.64H43.78a1.77,1.77,0,0,0,1.78,2,2,2,0,0,0,2-1.42ZM47.11,6.24a1.94,1.94,0,0,0-.45-1.15,1.75,1.75,0,0,0-1.17-.45,1.63,1.63,0,0,0-1.21.53,2.09,2.09,0,0,0-.48,1.07Z" transform="translate(-1.14 -1.36)"/>
    <polygon class="cls-1" points="56.37 10.3 53.39 6.02 55.88 2.17 53.14 2.17 51.97 3.99 50.7 2.17 47.97 2.17 50.65 6.02 47.89 10.3 50.62 10.3 52.07 8.05 53.64 10.3 56.37 10.3"/>
    <path class="cls-1" d="M13.06,4.08a2.82,2.82,0,0,1,2.2-.91c2,0,3.38,1.5,3.38,4.21,0,1.66-.6,4.28-3.48,4.28-.79,0-1.56-.92-1.56-.92v3.63H10.89V3.53h2.17Zm1.68,1a1.54,1.54,0,0,0-1.22.61A2.82,2.82,0,0,0,13,7.42a2.71,2.71,0,0,0,.57,1.86,1.5,1.5,0,0,0,1.08.49c1.16,0,1.67-1.23,1.67-2.41,0-1-.29-2.05-1.27-2.28A1.26,1.26,0,0,0,14.74,5Z" transform="translate(-1.14 -1.36)"/>
    <path class="cls-1" d="M64,2.22h-.4V1.91H65v.31h-.41V3.76H64Z" transform="translate(-1.14 -1.36)"/>
    <path class="cls-1" d="M66.56,3.17c0-.29,0-.69,0-.92h0c-.06.37-.18,1.12-.25,1.51h-.45c-.06-.4-.18-1.17-.24-1.51h0c0,.21,0,.61,0,.93v.58h-.47V1.91h.75c.08.35.16.81.19,1.06h0c0-.26.13-.65.22-1.06h.75V3.76h-.51Z" transform="translate(-1.14 -1.36)"/>
</svg>