<?xml version="1.0" encoding="UTF-8"?><svg id="Layer_1" xmlns="http://www.w3.org/2000/svg" viewBox="0 0 20 20"><defs><style>.cls-1{fill-rule:evenodd;}.cls-1,.cls-2{fill:#333;stroke-width:0px;}</style></defs><path class="cls-2" d="m13.62,4l.61.61v11.39H5.78V4h7.84m.83-2H4.75c-.58,0-.97.36-.97.89v14.22c0,.44.39.89.97.89h10.51c.48,0,.97-.44.97-.89V3.78l-1.78-1.78h0Z"/><path class="cls-1" d="m12.98,11.02c-.21.21-.55.21-.77,0l-1.68-1.68v4.12c0,.3-.24.54-.54.54s-.54-.24-.54-.54v-4.1l-1.66,1.66c-.21.21-.55.21-.77,0-.21-.21-.21-.55,0-.77l2.98-2.98,2.98,2.98c.21.21.21.55,0,.77Z"/><path class="cls-1" d="m13.2,5.11h-6.41c-.25,0-.46.23-.46.52s.2.52.46.52h6.41c.25,0,.46-.23.46-.52s-.2-.52-.46-.52Z"/></svg>